<?xml version="1.0" encoding="UTF-8" standalone="no"?>
<!DOCTYPE svg PUBLIC "-//W3C//DTD SVG 1.1//EN"
 "http://www.w3.org/Graphics/SVG/1.1/DTD/svg11.dtd">
<!-- Generated by graphviz version 2.40.1 (20161225.0304)
 -->
<!-- Title: etymology Pages: 1 -->
<svg width="1438pt" height="1084pt"
 viewBox="0.00 0.00 1438.09 1084.41" xmlns="http://www.w3.org/2000/svg" xmlns:xlink="http://www.w3.org/1999/xlink">
<g id="graph0" class="graph" transform="scale(1 1) rotate(0) translate(4 1080.4148)">
<title>etymology</title>
<polygon fill="#ffffff" stroke="transparent" points="-4,4 -4,-1080.4148 1434.0911,-1080.4148 1434.0911,4 -4,4"/>
<!-- mortgage -->
<g id="node1" class="node">
<title>mortgage</title>
<polygon fill="none" stroke="#000000" points=".3695,-153.3748 .3695,-189.3748 81.3695,-189.3748 81.3695,-153.3748 .3695,-153.3748"/>
<text text-anchor="middle" x="20.3695" y="-168.8748" font-family="Helvetica,sans-Serif" font-size="10.00" fill="#000000">mort</text>
<polyline fill="none" stroke="#000000" points="40.3695,-153.3748 40.3695,-189.3748 "/>
<text text-anchor="middle" x="60.8695" y="-168.8748" font-family="Helvetica,sans-Serif" font-size="10.00" fill="#000000">gage</text>
</g>
<!-- pact -->
<g id="node68" class="node">
<title>pact</title>
<path fill="none" stroke="#000000" d="M55.8695,-233.8792C55.8695,-233.8792 25.8695,-233.8792 25.8695,-233.8792 19.8695,-233.8792 13.8695,-227.8792 13.8695,-221.8792 13.8695,-221.8792 13.8695,-209.8792 13.8695,-209.8792 13.8695,-203.8792 19.8695,-197.8792 25.8695,-197.8792 25.8695,-197.8792 55.8695,-197.8792 55.8695,-197.8792 61.8695,-197.8792 67.8695,-203.8792 67.8695,-209.8792 67.8695,-209.8792 67.8695,-221.8792 67.8695,-221.8792 67.8695,-227.8792 61.8695,-233.8792 55.8695,-233.8792"/>
<text text-anchor="middle" x="40.8695" y="-212.1792" font-family="Helvetica,sans-Serif" font-size="14.00" fill="#000000">pact</text>
</g>
<!-- mortgage&#45;&#45;pact -->
<g id="edge6" class="edge">
<title>mortgage:gage&#45;&#45;pact</title>
<path fill="none" stroke="#000000" d="M60.8695,-189.3748C60.8695,-189.3748 58.057,-193.1019 54.5414,-197.7609"/>
</g>
<!-- inspire -->
<g id="node2" class="node">
<title>inspire</title>
<polygon fill="none" stroke="#000000" points="646.8502,-647.365 646.8502,-683.365 713.8502,-683.365 713.8502,-647.365 646.8502,-647.365"/>
<text text-anchor="middle" x="659.8502" y="-662.865" font-family="Helvetica,sans-Serif" font-size="10.00" fill="#000000">in</text>
<polyline fill="none" stroke="#000000" points="672.8502,-647.365 672.8502,-683.365 "/>
<text text-anchor="middle" x="693.3502" y="-662.865" font-family="Helvetica,sans-Serif" font-size="10.00" fill="#000000">spire</text>
</g>
<!-- breathing -->
<g id="node69" class="node">
<title>breathing</title>
<path fill="none" stroke="#000000" d="M626.7941,-690.6837C626.7941,-690.6837 564.7941,-690.6837 564.7941,-690.6837 558.7941,-690.6837 552.7941,-684.6837 552.7941,-678.6837 552.7941,-678.6837 552.7941,-666.6837 552.7941,-666.6837 552.7941,-660.6837 558.7941,-654.6837 564.7941,-654.6837 564.7941,-654.6837 626.7941,-654.6837 626.7941,-654.6837 632.7941,-654.6837 638.7941,-660.6837 638.7941,-666.6837 638.7941,-666.6837 638.7941,-678.6837 638.7941,-678.6837 638.7941,-684.6837 632.7941,-690.6837 626.7941,-690.6837"/>
<text text-anchor="middle" x="595.7941" y="-668.9837" font-family="Helvetica,sans-Serif" font-size="14.00" fill="#000000">breathing</text>
</g>
<!-- inspire&#45;&#45;breathing -->
<g id="edge7" class="edge">
<title>inspire:spire&#45;&#45;breathing</title>
<path fill="none" stroke="#000000" d="M693.2531,-683.3889C693.2531,-683.3889 665.6096,-688.9722 643.6502,-686.565 642.1024,-686.3953 640.5356,-686.1809 638.9601,-685.9288"/>
</g>
<!-- perspire -->
<g id="node3" class="node">
<title>perspire</title>
<polygon fill="none" stroke="#000000" points="603.974,-699.1856 603.974,-735.1856 676.974,-735.1856 676.974,-699.1856 603.974,-699.1856"/>
<text text-anchor="middle" x="619.974" y="-714.6856" font-family="Helvetica,sans-Serif" font-size="10.00" fill="#000000">per</text>
<polyline fill="none" stroke="#000000" points="635.974,-699.1856 635.974,-735.1856 "/>
<text text-anchor="middle" x="656.474" y="-714.6856" font-family="Helvetica,sans-Serif" font-size="10.00" fill="#000000">spire</text>
</g>
<!-- perspire&#45;&#45;breathing -->
<g id="edge10" class="edge">
<title>perspire:spire&#45;&#45;breathing</title>
<path fill="none" stroke="#000000" d="M656.474,-699.1856C656.474,-699.1856 648.3336,-696.4874 641.9941,-693.8837 639.5472,-692.8787 637.0392,-691.8195 634.5182,-690.7326"/>
</g>
<!-- conspire -->
<g id="node4" class="node">
<title>conspire</title>
<polygon fill="none" stroke="#000000" points="517.994,-736.5858 517.994,-772.5858 592.994,-772.5858 592.994,-736.5858 517.994,-736.5858"/>
<text text-anchor="middle" x="534.994" y="-752.0858" font-family="Helvetica,sans-Serif" font-size="10.00" fill="#000000">con</text>
<polyline fill="none" stroke="#000000" points="551.994,-736.5858 551.994,-772.5858 "/>
<text text-anchor="middle" x="572.494" y="-752.0858" font-family="Helvetica,sans-Serif" font-size="10.00" fill="#000000">spire</text>
</g>
<!-- with -->
<g id="node64" class="node">
<title>with</title>
<path fill="none" stroke="#000000" d="M201.9293,-425.1855C201.9293,-425.1855 171.9293,-425.1855 171.9293,-425.1855 165.9293,-425.1855 159.9293,-419.1855 159.9293,-413.1855 159.9293,-413.1855 159.9293,-401.1855 159.9293,-401.1855 159.9293,-395.1855 165.9293,-389.1855 171.9293,-389.1855 171.9293,-389.1855 201.9293,-389.1855 201.9293,-389.1855 207.9293,-389.1855 213.9293,-395.1855 213.9293,-401.1855 213.9293,-401.1855 213.9293,-413.1855 213.9293,-413.1855 213.9293,-419.1855 207.9293,-425.1855 201.9293,-425.1855"/>
<text text-anchor="middle" x="186.9293" y="-403.4855" font-family="Helvetica,sans-Serif" font-size="14.00" fill="#000000">with</text>
</g>
<!-- conspire&#45;&#45;with -->
<g id="edge43" class="edge">
<title>conspire:con&#45;&#45;with</title>
<path fill="none" stroke="#000000" d="M534.494,-736.5858C534.494,-736.5858 302.2761,-632.6005 201.8029,-472.9063 192.7698,-458.5489 189.1978,-439.3714 187.7985,-425.4403"/>
</g>
<!-- conspire&#45;&#45;breathing -->
<g id="edge9" class="edge">
<title>conspire:spire&#45;&#45;breathing</title>
<path fill="none" stroke="#000000" d="M572.494,-736.5858C572.494,-736.5858 582.291,-709.7168 589.1796,-690.8246"/>
</g>
<!-- aspire -->
<g id="node5" class="node">
<title>aspire</title>
<polygon fill="none" stroke="#000000" points="483.6331,-610.1724 483.6331,-646.1724 547.6331,-646.1724 547.6331,-610.1724 483.6331,-610.1724"/>
<text text-anchor="middle" x="495.1331" y="-625.6724" font-family="Helvetica,sans-Serif" font-size="10.00" fill="#000000">a</text>
<polyline fill="none" stroke="#000000" points="506.6331,-610.1724 506.6331,-646.1724 "/>
<text text-anchor="middle" x="527.1331" y="-625.6724" font-family="Helvetica,sans-Serif" font-size="10.00" fill="#000000">spire</text>
</g>
<!-- aspire&#45;&#45;breathing -->
<g id="edge8" class="edge">
<title>aspire:spire&#45;&#45;breathing</title>
<path fill="none" stroke="#000000" d="M547.6331,-628.1724C547.6331,-628.1724 562.8715,-642.256 576.2052,-654.5792"/>
</g>
<!-- to -->
<g id="node74" class="node">
<title>to</title>
<path fill="none" stroke="#000000" d="M463.5694,-603.2718C463.5694,-603.2718 433.5694,-603.2718 433.5694,-603.2718 427.5694,-603.2718 421.5694,-597.2718 421.5694,-591.2718 421.5694,-591.2718 421.5694,-579.2718 421.5694,-579.2718 421.5694,-573.2718 427.5694,-567.2718 433.5694,-567.2718 433.5694,-567.2718 463.5694,-567.2718 463.5694,-567.2718 469.5694,-567.2718 475.5694,-573.2718 475.5694,-579.2718 475.5694,-579.2718 475.5694,-591.2718 475.5694,-591.2718 475.5694,-597.2718 469.5694,-603.2718 463.5694,-603.2718"/>
<text text-anchor="middle" x="448.5694" y="-581.5718" font-family="Helvetica,sans-Serif" font-size="14.00" fill="#000000">to</text>
</g>
<!-- aspire&#45;&#45;to -->
<g id="edge2" class="edge">
<title>aspire:a&#45;&#45;to</title>
<path fill="none" stroke="#000000" d="M494.6331,-610.1724C494.6331,-610.1724 485.6581,-605.3207 475.6313,-599.9006"/>
</g>
<!-- avenue -->
<g id="node6" class="node">
<title>avenue</title>
<polygon fill="none" stroke="#000000" points="347.3568,-522.7543 347.3568,-558.7543 417.3568,-558.7543 417.3568,-522.7543 347.3568,-522.7543"/>
<text text-anchor="middle" x="358.8568" y="-538.2543" font-family="Helvetica,sans-Serif" font-size="10.00" fill="#000000">a</text>
<polyline fill="none" stroke="#000000" points="370.3568,-522.7543 370.3568,-558.7543 "/>
<text text-anchor="middle" x="393.8568" y="-538.2543" font-family="Helvetica,sans-Serif" font-size="10.00" fill="#000000">venue</text>
</g>
<!-- avenue&#45;&#45;to -->
<g id="edge3" class="edge">
<title>avenue:a&#45;&#45;to</title>
<path fill="none" stroke="#000000" d="M358.3568,-558.7543C358.3568,-558.7543 412.079,-561.782 418.3694,-564.0718 420.6533,-564.9031 422.9245,-565.9526 425.1366,-567.1371"/>
</g>
<!-- coming -->
<g id="node75" class="node">
<title>coming</title>
<path fill="none" stroke="#000000" d="M339.7469,-514.2468C339.7469,-514.2468 294.7469,-514.2468 294.7469,-514.2468 288.7469,-514.2468 282.7469,-508.2468 282.7469,-502.2468 282.7469,-502.2468 282.7469,-490.2468 282.7469,-490.2468 282.7469,-484.2468 288.7469,-478.2468 294.7469,-478.2468 294.7469,-478.2468 339.7469,-478.2468 339.7469,-478.2468 345.7469,-478.2468 351.7469,-484.2468 351.7469,-490.2468 351.7469,-490.2468 351.7469,-502.2468 351.7469,-502.2468 351.7469,-508.2468 345.7469,-514.2468 339.7469,-514.2468"/>
<text text-anchor="middle" x="317.2469" y="-492.5468" font-family="Helvetica,sans-Serif" font-size="14.00" fill="#000000">coming</text>
</g>
<!-- avenue&#45;&#45;coming -->
<g id="edge4" class="edge">
<title>avenue:venue&#45;&#45;coming</title>
<path fill="none" stroke="#000000" d="M394.3568,-522.7543C394.3568,-522.7543 363.3294,-520.2438 354.9469,-517.4468 352.3856,-516.5922 349.799,-515.5606 347.2451,-514.4188"/>
</g>
<!-- convenient -->
<g id="node7" class="node">
<title>convenient</title>
<polygon fill="none" stroke="#000000" points="205.0029,-433.7063 205.0029,-469.7063 292.0029,-469.7063 292.0029,-433.7063 205.0029,-433.7063"/>
<text text-anchor="middle" x="222.0029" y="-449.2063" font-family="Helvetica,sans-Serif" font-size="10.00" fill="#000000">con</text>
<polyline fill="none" stroke="#000000" points="239.0029,-433.7063 239.0029,-469.7063 "/>
<text text-anchor="middle" x="265.5029" y="-449.2063" font-family="Helvetica,sans-Serif" font-size="10.00" fill="#000000">venient</text>
</g>
<!-- convenient&#45;&#45;with -->
<g id="edge42" class="edge">
<title>convenient:con&#45;&#45;with</title>
<path fill="none" stroke="#000000" d="M221.5029,-433.7063C221.5029,-433.7063 216.641,-429.9768 210.5636,-425.315"/>
</g>
<!-- convenient&#45;&#45;coming -->
<g id="edge41" class="edge">
<title>convenient:venient&#45;&#45;coming</title>
<path fill="none" stroke="#000000" d="M292.5029,-451.7063C292.5029,-451.7063 300.332,-465.7992 307.1826,-478.1305"/>
</g>
<!-- expire -->
<g id="node8" class="node">
<title>expire</title>
<polygon fill="none" stroke="#000000" points="578.0564,-571.775 578.0564,-607.775 642.0564,-607.775 642.0564,-571.775 578.0564,-571.775"/>
<text text-anchor="middle" x="592.5564" y="-587.275" font-family="Helvetica,sans-Serif" font-size="10.00" fill="#000000">ex</text>
<polyline fill="none" stroke="#000000" points="607.0564,-571.775 607.0564,-607.775 "/>
<text text-anchor="middle" x="624.5564" y="-587.275" font-family="Helvetica,sans-Serif" font-size="10.00" fill="#000000">pire</text>
</g>
<!-- expose -->
<g id="node9" class="node">
<title>expose</title>
<polygon fill="none" stroke="#000000" points="718.5112,-594.4896 718.5112,-630.4896 787.5112,-630.4896 787.5112,-594.4896 718.5112,-594.4896"/>
<text text-anchor="middle" x="733.0112" y="-609.9896" font-family="Helvetica,sans-Serif" font-size="10.00" fill="#000000">ex</text>
<polyline fill="none" stroke="#000000" points="747.5112,-594.4896 747.5112,-630.4896 "/>
<text text-anchor="middle" x="767.5112" y="-609.9896" font-family="Helvetica,sans-Serif" font-size="10.00" fill="#000000">pose</text>
</g>
<!-- putting -->
<g id="node71" class="node">
<title>putting</title>
<path fill="none" stroke="#000000" d="M406.2846,-361.1631C406.2846,-361.1631 363.2846,-361.1631 363.2846,-361.1631 357.2846,-361.1631 351.2846,-355.1631 351.2846,-349.1631 351.2846,-349.1631 351.2846,-337.1631 351.2846,-337.1631 351.2846,-331.1631 357.2846,-325.1631 363.2846,-325.1631 363.2846,-325.1631 406.2846,-325.1631 406.2846,-325.1631 412.2846,-325.1631 418.2846,-331.1631 418.2846,-337.1631 418.2846,-337.1631 418.2846,-349.1631 418.2846,-349.1631 418.2846,-355.1631 412.2846,-361.1631 406.2846,-361.1631"/>
<text text-anchor="middle" x="384.7846" y="-339.4631" font-family="Helvetica,sans-Serif" font-size="14.00" fill="#000000">putting</text>
</g>
<!-- expose&#45;&#45;putting -->
<g id="edge14" class="edge">
<title>expose:pose&#45;&#45;putting</title>
<path fill="none" stroke="#000000" d="M768.0112,-594.4896C768.0112,-594.4896 611.8078,-553.6169 608.9116,-550.0578 604.3242,-544.4205 608.8825,-524.3591 606.6997,-517.4266 601.1163,-499.6936 592.0328,-498.8532 585.1079,-481.5998 584.2989,-479.5843 584.5621,-473.537 582.9657,-472.0645 548.7036,-440.4596 517.3631,-484.041 479.1179,-457.3939 441.5151,-431.1944 462.9107,-398.7269 430.2188,-366.608 426.7997,-363.2489 422.8015,-360.2637 418.6205,-357.6442"/>
</g>
<!-- supose -->
<g id="node10" class="node">
<title>supose</title>
<polygon fill="none" stroke="#000000" points="166.4211,-299.6409 166.4211,-335.6409 234.4211,-335.6409 234.4211,-299.6409 166.4211,-299.6409"/>
<text text-anchor="middle" x="180.4211" y="-315.1409" font-family="Helvetica,sans-Serif" font-size="10.00" fill="#000000">su</text>
<polyline fill="none" stroke="#000000" points="194.4211,-299.6409 194.4211,-335.6409 "/>
<text text-anchor="middle" x="214.4211" y="-315.1409" font-family="Helvetica,sans-Serif" font-size="10.00" fill="#000000">pose</text>
</g>
<!-- supose&#45;&#45;putting -->
<g id="edge16" class="edge">
<title>supose:pose&#45;&#45;putting</title>
<path fill="none" stroke="#000000" d="M234.4211,-317.6409C234.4211,-317.6409 306.7079,-329.9106 351.0401,-337.4354"/>
</g>
<!-- under -->
<g id="node72" class="node">
<title>under</title>
<path fill="none" stroke="#000000" d="M181.2023,-291.1328C181.2023,-291.1328 146.2023,-291.1328 146.2023,-291.1328 140.2023,-291.1328 134.2023,-285.1328 134.2023,-279.1328 134.2023,-279.1328 134.2023,-267.1328 134.2023,-267.1328 134.2023,-261.1328 140.2023,-255.1328 146.2023,-255.1328 146.2023,-255.1328 181.2023,-255.1328 181.2023,-255.1328 187.2023,-255.1328 193.2023,-261.1328 193.2023,-267.1328 193.2023,-267.1328 193.2023,-279.1328 193.2023,-279.1328 193.2023,-285.1328 187.2023,-291.1328 181.2023,-291.1328"/>
<text text-anchor="middle" x="163.7023" y="-269.4328" font-family="Helvetica,sans-Serif" font-size="14.00" fill="#000000">under</text>
</g>
<!-- supose&#45;&#45;under -->
<g id="edge15" class="edge">
<title>supose:su&#45;&#45;under</title>
<path fill="none" stroke="#000000" d="M180.4211,-299.6409C180.4211,-299.6409 178.07,-295.9132 175.1312,-291.2536"/>
</g>
<!-- monster -->
<g id="node11" class="node">
<title>monster</title>
<polygon fill="none" stroke="#000000" points="698.6231,-231.4356 698.6231,-267.4356 771.6231,-267.4356 771.6231,-231.4356 698.6231,-231.4356"/>
<text text-anchor="middle" x="717.6231" y="-246.9356" font-family="Helvetica,sans-Serif" font-size="10.00" fill="#000000">mon</text>
<polyline fill="none" stroke="#000000" points="736.6231,-231.4356 736.6231,-267.4356 "/>
<text text-anchor="middle" x="754.1231" y="-246.9356" font-family="Helvetica,sans-Serif" font-size="10.00" fill="#000000">ster</text>
</g>
<!-- monitor -->
<g id="node12" class="node">
<title>monitor</title>
<polygon fill="none" stroke="#000000" points="593.8625,-170.3748 593.8625,-206.3748 664.8625,-206.3748 664.8625,-170.3748 593.8625,-170.3748"/>
<text text-anchor="middle" x="612.8625" y="-185.8748" font-family="Helvetica,sans-Serif" font-size="10.00" fill="#000000">mon</text>
<polyline fill="none" stroke="#000000" points="631.8625,-170.3748 631.8625,-206.3748 "/>
<text text-anchor="middle" x="648.3625" y="-185.8748" font-family="Helvetica,sans-Serif" font-size="10.00" fill="#000000">itor</text>
</g>
<!-- money -->
<g id="node13" class="node">
<title>money</title>
<polygon fill="none" stroke="#000000" points="701.6231,-109.3139 701.6231,-145.3139 768.6231,-145.3139 768.6231,-109.3139 701.6231,-109.3139"/>
<text text-anchor="middle" x="720.6231" y="-124.8139" font-family="Helvetica,sans-Serif" font-size="10.00" fill="#000000">mon</text>
<polyline fill="none" stroke="#000000" points="739.6231,-109.3139 739.6231,-145.3139 "/>
<text text-anchor="middle" x="754.1231" y="-124.8139" font-family="Helvetica,sans-Serif" font-size="10.00" fill="#000000">ey</text>
</g>
<!-- decay -->
<g id="node14" class="node">
<title>decay</title>
<polygon fill="none" stroke="#000000" points="1238.7303,-298.5465 1238.7303,-334.5465 1301.7303,-334.5465 1301.7303,-298.5465 1238.7303,-298.5465"/>
<text text-anchor="middle" x="1253.2303" y="-314.0465" font-family="Helvetica,sans-Serif" font-size="10.00" fill="#000000">de</text>
<polyline fill="none" stroke="#000000" points="1267.7303,-298.5465 1267.7303,-334.5465 "/>
<text text-anchor="middle" x="1284.7303" y="-314.0465" font-family="Helvetica,sans-Serif" font-size="10.00" fill="#000000">cay</text>
</g>
<!-- falling -->
<g id="node76" class="node">
<title>falling</title>
<path fill="none" stroke="#000000" d="M1409.5911,-378.7182C1409.5911,-378.7182 1373.5911,-378.7182 1373.5911,-378.7182 1367.5911,-378.7182 1361.5911,-372.7182 1361.5911,-366.7182 1361.5911,-366.7182 1361.5911,-354.7182 1361.5911,-354.7182 1361.5911,-348.7182 1367.5911,-342.7182 1373.5911,-342.7182 1373.5911,-342.7182 1409.5911,-342.7182 1409.5911,-342.7182 1415.5911,-342.7182 1421.5911,-348.7182 1421.5911,-354.7182 1421.5911,-354.7182 1421.5911,-366.7182 1421.5911,-366.7182 1421.5911,-372.7182 1415.5911,-378.7182 1409.5911,-378.7182"/>
<text text-anchor="middle" x="1391.5911" y="-357.0182" font-family="Helvetica,sans-Serif" font-size="14.00" fill="#000000">falling</text>
</g>
<!-- decay&#45;&#45;falling -->
<g id="edge1" class="edge">
<title>decay:cay&#45;&#45;falling</title>
<path fill="none" stroke="#000000" d="M1302.2303,-316.5465C1302.2303,-316.5465 1335.4134,-332.9491 1361.3376,-345.7637"/>
</g>
<!-- from -->
<g id="node77" class="node">
<title>from</title>
<path fill="none" stroke="#000000" d="M1163.8695,-290.3748C1163.8695,-290.3748 1133.8695,-290.3748 1133.8695,-290.3748 1127.8695,-290.3748 1121.8695,-284.3748 1121.8695,-278.3748 1121.8695,-278.3748 1121.8695,-266.3748 1121.8695,-266.3748 1121.8695,-260.3748 1127.8695,-254.3748 1133.8695,-254.3748 1133.8695,-254.3748 1163.8695,-254.3748 1163.8695,-254.3748 1169.8695,-254.3748 1175.8695,-260.3748 1175.8695,-266.3748 1175.8695,-266.3748 1175.8695,-278.3748 1175.8695,-278.3748 1175.8695,-284.3748 1169.8695,-290.3748 1163.8695,-290.3748"/>
<text text-anchor="middle" x="1148.8695" y="-268.6748" font-family="Helvetica,sans-Serif" font-size="14.00" fill="#000000">from</text>
</g>
<!-- decay&#45;&#45;from -->
<g id="edge20" class="edge">
<title>decay:de&#45;&#45;from</title>
<path fill="none" stroke="#000000" d="M1238.2303,-316.5465C1238.2303,-316.5465 1202.4456,-298.8578 1176.1663,-285.8677"/>
</g>
<!-- deny -->
<g id="node15" class="node">
<title>deny</title>
<polygon fill="none" stroke="#000000" points="1184.4443,-366.2215 1184.4443,-402.2215 1242.4443,-402.2215 1242.4443,-366.2215 1184.4443,-366.2215"/>
<text text-anchor="middle" x="1198.9443" y="-381.7215" font-family="Helvetica,sans-Serif" font-size="10.00" fill="#000000">de</text>
<polyline fill="none" stroke="#000000" points="1213.4443,-366.2215 1213.4443,-402.2215 "/>
<text text-anchor="middle" x="1227.9443" y="-381.7215" font-family="Helvetica,sans-Serif" font-size="10.00" fill="#000000">ny</text>
</g>
<!-- deny&#45;&#45;from -->
<g id="edge21" class="edge">
<title>deny:de&#45;&#45;from</title>
<path fill="none" stroke="#000000" d="M1198.4443,-366.2215C1198.4443,-366.2215 1172.8339,-317.7401 1158.428,-290.4693"/>
</g>
<!-- nay -->
<g id="node79" class="node">
<title>nay</title>
<path fill="none" stroke="#000000" d="M1293.019,-514.0682C1293.019,-514.0682 1263.019,-514.0682 1263.019,-514.0682 1257.019,-514.0682 1251.019,-508.0682 1251.019,-502.0682 1251.019,-502.0682 1251.019,-490.0682 1251.019,-490.0682 1251.019,-484.0682 1257.019,-478.0682 1263.019,-478.0682 1263.019,-478.0682 1293.019,-478.0682 1293.019,-478.0682 1299.019,-478.0682 1305.019,-484.0682 1305.019,-490.0682 1305.019,-490.0682 1305.019,-502.0682 1305.019,-502.0682 1305.019,-508.0682 1299.019,-514.0682 1293.019,-514.0682"/>
<text text-anchor="middle" x="1278.019" y="-492.3682" font-family="Helvetica,sans-Serif" font-size="14.00" fill="#000000">nay</text>
</g>
<!-- deny&#45;&#45;nay -->
<g id="edge30" class="edge">
<title>deny:ny&#45;&#45;nay</title>
<path fill="none" stroke="#000000" d="M1228.4443,-402.2215C1228.4443,-402.2215 1254.0546,-450.7028 1268.4605,-477.9736"/>
</g>
<!-- deliver -->
<g id="node16" class="node">
<title>deliver</title>
<polygon fill="none" stroke="#000000" points="1092.943,-381.5621 1092.943,-417.5621 1159.943,-417.5621 1159.943,-381.5621 1092.943,-381.5621"/>
<text text-anchor="middle" x="1107.443" y="-397.0621" font-family="Helvetica,sans-Serif" font-size="10.00" fill="#000000">de</text>
<polyline fill="none" stroke="#000000" points="1121.943,-381.5621 1121.943,-417.5621 "/>
<text text-anchor="middle" x="1140.943" y="-397.0621" font-family="Helvetica,sans-Serif" font-size="10.00" fill="#000000">liver</text>
</g>
<!-- deliver&#45;&#45;from -->
<g id="edge22" class="edge">
<title>deliver:de&#45;&#45;from</title>
<path fill="none" stroke="#000000" d="M1107.443,-381.5621C1107.443,-381.5621 1130.2625,-321.4171 1142.0288,-290.4048"/>
</g>
<!-- liberty -->
<g id="node78" class="node">
<title>liberty</title>
<path fill="none" stroke="#000000" d="M1123.0164,-544.7495C1123.0164,-544.7495 1085.0164,-544.7495 1085.0164,-544.7495 1079.0164,-544.7495 1073.0164,-538.7495 1073.0164,-532.7495 1073.0164,-532.7495 1073.0164,-520.7495 1073.0164,-520.7495 1073.0164,-514.7495 1079.0164,-508.7495 1085.0164,-508.7495 1085.0164,-508.7495 1123.0164,-508.7495 1123.0164,-508.7495 1129.0164,-508.7495 1135.0164,-514.7495 1135.0164,-520.7495 1135.0164,-520.7495 1135.0164,-532.7495 1135.0164,-532.7495 1135.0164,-538.7495 1129.0164,-544.7495 1123.0164,-544.7495"/>
<text text-anchor="middle" x="1104.0164" y="-523.0495" font-family="Helvetica,sans-Serif" font-size="14.00" fill="#000000">liberty</text>
</g>
<!-- deliver&#45;&#45;liberty -->
<g id="edge29" class="edge">
<title>deliver:liver&#45;&#45;liberty</title>
<path fill="none" stroke="#000000" d="M1141.443,-417.5621C1141.443,-417.5621 1120.8268,-477.7072 1110.1966,-508.7194"/>
</g>
<!-- depend -->
<g id="node17" class="node">
<title>depend</title>
<polygon fill="none" stroke="#000000" points="1014.9353,-337.3904 1014.9353,-373.3904 1084.9353,-373.3904 1084.9353,-337.3904 1014.9353,-337.3904"/>
<text text-anchor="middle" x="1029.4353" y="-352.8904" font-family="Helvetica,sans-Serif" font-size="10.00" fill="#000000">de</text>
<polyline fill="none" stroke="#000000" points="1043.9353,-337.3904 1043.9353,-373.3904 "/>
<text text-anchor="middle" x="1064.4353" y="-352.8904" font-family="Helvetica,sans-Serif" font-size="10.00" fill="#000000">pend</text>
</g>
<!-- depend&#45;&#45;from -->
<g id="edge23" class="edge">
<title>depend:de&#45;&#45;from</title>
<path fill="none" stroke="#000000" d="M1028.9353,-337.3904C1028.9353,-337.3904 1086.269,-306.3102 1121.6546,-287.1278"/>
</g>
<!-- hanging -->
<g id="node80" class="node">
<title>hanging</title>
<path fill="none" stroke="#000000" d="M976.0011,-456.4061C976.0011,-456.4061 926.0011,-456.4061 926.0011,-456.4061 920.0011,-456.4061 914.0011,-450.4061 914.0011,-444.4061 914.0011,-444.4061 914.0011,-432.4061 914.0011,-432.4061 914.0011,-426.4061 920.0011,-420.4061 926.0011,-420.4061 926.0011,-420.4061 976.0011,-420.4061 976.0011,-420.4061 982.0011,-420.4061 988.0011,-426.4061 988.0011,-432.4061 988.0011,-432.4061 988.0011,-444.4061 988.0011,-444.4061 988.0011,-450.4061 982.0011,-456.4061 976.0011,-456.4061"/>
<text text-anchor="middle" x="951.0011" y="-434.7061" font-family="Helvetica,sans-Serif" font-size="14.00" fill="#000000">hanging</text>
</g>
<!-- depend&#45;&#45;hanging -->
<g id="edge31" class="edge">
<title>depend:pend&#45;&#45;hanging</title>
<path fill="none" stroke="#000000" d="M1064.9353,-373.3904C1064.9353,-373.3904 1016.4503,-401.058 982.7381,-420.2956"/>
</g>
<!-- decipher -->
<g id="node18" class="node">
<title>decipher</title>
<polygon fill="none" stroke="#000000" points="981.7201,-254.3748 981.7201,-290.3748 1057.7201,-290.3748 1057.7201,-254.3748 981.7201,-254.3748"/>
<text text-anchor="middle" x="996.2201" y="-269.8748" font-family="Helvetica,sans-Serif" font-size="10.00" fill="#000000">de</text>
<polyline fill="none" stroke="#000000" points="1010.7201,-254.3748 1010.7201,-290.3748 "/>
<text text-anchor="middle" x="1034.2201" y="-269.8748" font-family="Helvetica,sans-Serif" font-size="10.00" fill="#000000">cipher</text>
</g>
<!-- decipher&#45;&#45;from -->
<g id="edge24" class="edge">
<title>decipher:de&#45;&#45;from</title>
<path fill="none" stroke="#000000" d="M995.8192,-254.3615C995.8192,-254.3615 1032.0791,-248.4612 1060.9201,-251.1748 1081.5613,-253.1168 1104.2993,-258.6926 1121.4839,-263.6384"/>
</g>
<!-- zero -->
<g id="node81" class="node">
<title>zero</title>
<path fill="none" stroke="#000000" d="M905.5706,-290.3748C905.5706,-290.3748 875.5706,-290.3748 875.5706,-290.3748 869.5706,-290.3748 863.5706,-284.3748 863.5706,-278.3748 863.5706,-278.3748 863.5706,-266.3748 863.5706,-266.3748 863.5706,-260.3748 869.5706,-254.3748 875.5706,-254.3748 875.5706,-254.3748 905.5706,-254.3748 905.5706,-254.3748 911.5706,-254.3748 917.5706,-260.3748 917.5706,-266.3748 917.5706,-266.3748 917.5706,-278.3748 917.5706,-278.3748 917.5706,-284.3748 911.5706,-290.3748 905.5706,-290.3748"/>
<text text-anchor="middle" x="890.5706" y="-268.6748" font-family="Helvetica,sans-Serif" font-size="14.00" fill="#000000">zero</text>
</g>
<!-- decipher&#45;&#45;zero -->
<g id="edge32" class="edge">
<title>decipher:cipher&#45;&#45;zero</title>
<path fill="none" stroke="#000000" d="M1034.6223,-254.3539C1034.6223,-254.3539 1003.3934,-248.931 978.5201,-251.1748 957.8716,-253.0374 935.1338,-258.6156 917.9511,-263.5825"/>
</g>
<!-- decide -->
<g id="node19" class="node">
<title>decide</title>
<polygon fill="none" stroke="#000000" points="1016.9353,-171.3591 1016.9353,-207.3591 1082.9353,-207.3591 1082.9353,-171.3591 1016.9353,-171.3591"/>
<text text-anchor="middle" x="1031.4353" y="-186.8591" font-family="Helvetica,sans-Serif" font-size="10.00" fill="#000000">de</text>
<polyline fill="none" stroke="#000000" points="1045.9353,-171.3591 1045.9353,-207.3591 "/>
<text text-anchor="middle" x="1064.4353" y="-186.8591" font-family="Helvetica,sans-Serif" font-size="10.00" fill="#000000">cide</text>
</g>
<!-- decide&#45;&#45;from -->
<g id="edge25" class="edge">
<title>decide:de&#45;&#45;from</title>
<path fill="none" stroke="#000000" d="M1030.9353,-207.3591C1030.9353,-207.3591 1086.9948,-238.264 1121.813,-257.4588"/>
</g>
<!-- cutting -->
<g id="node82" class="node">
<title>cutting</title>
<path fill="none" stroke="#000000" d="M971.5011,-124.3434C971.5011,-124.3434 930.5011,-124.3434 930.5011,-124.3434 924.5011,-124.3434 918.5011,-118.3434 918.5011,-112.3434 918.5011,-112.3434 918.5011,-100.3434 918.5011,-100.3434 918.5011,-94.3434 924.5011,-88.3434 930.5011,-88.3434 930.5011,-88.3434 971.5011,-88.3434 971.5011,-88.3434 977.5011,-88.3434 983.5011,-94.3434 983.5011,-100.3434 983.5011,-100.3434 983.5011,-112.3434 983.5011,-112.3434 983.5011,-118.3434 977.5011,-124.3434 971.5011,-124.3434"/>
<text text-anchor="middle" x="951.0011" y="-102.6434" font-family="Helvetica,sans-Serif" font-size="14.00" fill="#000000">cutting</text>
</g>
<!-- decide&#45;&#45;cutting -->
<g id="edge33" class="edge">
<title>decide:cide&#45;&#45;cutting</title>
<path fill="none" stroke="#000000" d="M1064.9353,-171.3591C1064.9353,-171.3591 1021.2429,-147.4203 986.7011,-127.5434 984.9539,-126.538 983.1618,-125.5001 981.3555,-124.4488"/>
</g>
<!-- debate -->
<g id="node20" class="node">
<title>debate</title>
<polygon fill="none" stroke="#000000" points="1092.943,-127.1874 1092.943,-163.1874 1159.943,-163.1874 1159.943,-127.1874 1092.943,-127.1874"/>
<text text-anchor="middle" x="1107.443" y="-142.6874" font-family="Helvetica,sans-Serif" font-size="10.00" fill="#000000">de</text>
<polyline fill="none" stroke="#000000" points="1121.943,-127.1874 1121.943,-163.1874 "/>
<text text-anchor="middle" x="1140.943" y="-142.6874" font-family="Helvetica,sans-Serif" font-size="10.00" fill="#000000">bate</text>
</g>
<!-- debate&#45;&#45;from -->
<g id="edge26" class="edge">
<title>debate:de&#45;&#45;from</title>
<path fill="none" stroke="#000000" d="M1107.443,-163.1874C1107.443,-163.1874 1130.2625,-223.3324 1142.0288,-254.3447"/>
</g>
<!-- beating -->
<g id="node83" class="node">
<title>beating</title>
<path fill="none" stroke="#000000" d="M1127.5164,-36C1127.5164,-36 1080.5164,-36 1080.5164,-36 1074.5164,-36 1068.5164,-30 1068.5164,-24 1068.5164,-24 1068.5164,-12 1068.5164,-12 1068.5164,-6 1074.5164,0 1080.5164,0 1080.5164,0 1127.5164,0 1127.5164,0 1133.5164,0 1139.5164,-6 1139.5164,-12 1139.5164,-12 1139.5164,-24 1139.5164,-24 1139.5164,-30 1133.5164,-36 1127.5164,-36"/>
<text text-anchor="middle" x="1104.0164" y="-14.3" font-family="Helvetica,sans-Serif" font-size="14.00" fill="#000000">beating</text>
</g>
<!-- debate&#45;&#45;beating -->
<g id="edge34" class="edge">
<title>debate:bate&#45;&#45;beating</title>
<path fill="none" stroke="#000000" d="M1141.443,-127.1874C1141.443,-127.1874 1120.8268,-67.0424 1110.1966,-36.0301"/>
</g>
<!-- delay -->
<g id="node21" class="node">
<title>delay</title>
<polygon fill="none" stroke="#000000" points="1182.9443,-142.5281 1182.9443,-178.5281 1243.9443,-178.5281 1243.9443,-142.5281 1182.9443,-142.5281"/>
<text text-anchor="middle" x="1197.4443" y="-158.0281" font-family="Helvetica,sans-Serif" font-size="10.00" fill="#000000">de</text>
<polyline fill="none" stroke="#000000" points="1211.9443,-142.5281 1211.9443,-178.5281 "/>
<text text-anchor="middle" x="1227.9443" y="-158.0281" font-family="Helvetica,sans-Serif" font-size="10.00" fill="#000000">lay</text>
</g>
<!-- delay&#45;&#45;from -->
<g id="edge27" class="edge">
<title>delay:de&#45;&#45;from</title>
<path fill="none" stroke="#000000" d="M1197.4443,-178.5281C1197.4443,-178.5281 1172.3505,-227.0094 1158.2352,-254.2802"/>
</g>
<!-- lax -->
<g id="node84" class="node">
<title>lax</title>
<path fill="none" stroke="#000000" d="M1293.019,-66.6813C1293.019,-66.6813 1263.019,-66.6813 1263.019,-66.6813 1257.019,-66.6813 1251.019,-60.6813 1251.019,-54.6813 1251.019,-54.6813 1251.019,-42.6813 1251.019,-42.6813 1251.019,-36.6813 1257.019,-30.6813 1263.019,-30.6813 1263.019,-30.6813 1293.019,-30.6813 1293.019,-30.6813 1299.019,-30.6813 1305.019,-36.6813 1305.019,-42.6813 1305.019,-42.6813 1305.019,-54.6813 1305.019,-54.6813 1305.019,-60.6813 1299.019,-66.6813 1293.019,-66.6813"/>
<text text-anchor="middle" x="1278.019" y="-44.9813" font-family="Helvetica,sans-Serif" font-size="14.00" fill="#000000">lax</text>
</g>
<!-- delay&#45;&#45;lax -->
<g id="edge35" class="edge">
<title>delay:lay&#45;&#45;lax</title>
<path fill="none" stroke="#000000" d="M1228.4443,-142.5281C1228.4443,-142.5281 1254.0546,-94.0467 1268.4605,-66.7759"/>
</g>
<!-- determine -->
<g id="node22" class="node">
<title>determine</title>
<polygon fill="none" stroke="#000000" points="1228.2303,-210.203 1228.2303,-246.203 1312.2303,-246.203 1312.2303,-210.203 1228.2303,-210.203"/>
<text text-anchor="middle" x="1242.7303" y="-225.703" font-family="Helvetica,sans-Serif" font-size="10.00" fill="#000000">de</text>
<polyline fill="none" stroke="#000000" points="1257.2303,-210.203 1257.2303,-246.203 "/>
<text text-anchor="middle" x="1284.7303" y="-225.703" font-family="Helvetica,sans-Serif" font-size="10.00" fill="#000000">termine</text>
</g>
<!-- determine&#45;&#45;from -->
<g id="edge28" class="edge">
<title>determine:de&#45;&#45;from</title>
<path fill="none" stroke="#000000" d="M1228.2303,-228.203C1228.2303,-228.203 1199.1372,-244.3961 1176.181,-257.1734"/>
</g>
<!-- finishing -->
<g id="node85" class="node">
<title>finishing</title>
<path fill="none" stroke="#000000" d="M1418.0911,-202.0313C1418.0911,-202.0313 1365.0911,-202.0313 1365.0911,-202.0313 1359.0911,-202.0313 1353.0911,-196.0313 1353.0911,-190.0313 1353.0911,-190.0313 1353.0911,-178.0313 1353.0911,-178.0313 1353.0911,-172.0313 1359.0911,-166.0313 1365.0911,-166.0313 1365.0911,-166.0313 1418.0911,-166.0313 1418.0911,-166.0313 1424.0911,-166.0313 1430.0911,-172.0313 1430.0911,-178.0313 1430.0911,-178.0313 1430.0911,-190.0313 1430.0911,-190.0313 1430.0911,-196.0313 1424.0911,-202.0313 1418.0911,-202.0313"/>
<text text-anchor="middle" x="1391.5911" y="-180.3313" font-family="Helvetica,sans-Serif" font-size="14.00" fill="#000000">finishing</text>
</g>
<!-- determine&#45;&#45;finishing -->
<g id="edge36" class="edge">
<title>determine:termine&#45;&#45;finishing</title>
<path fill="none" stroke="#000000" d="M1312.2303,-228.203C1312.2303,-228.203 1332.7752,-214.7943 1349.8911,-205.2313 1351.731,-204.2034 1353.6262,-203.1655 1355.5466,-202.1304"/>
</g>
<!-- hippopotamus -->
<g id="node23" class="node">
<title>hippopotamus</title>
<polygon fill="none" stroke="#000000" points="1178.9007,-950.9059 1178.9007,-986.9059 1281.9007,-986.9059 1281.9007,-950.9059 1178.9007,-950.9059"/>
<text text-anchor="middle" x="1200.9007" y="-966.4059" font-family="Helvetica,sans-Serif" font-size="10.00" fill="#000000">hippo</text>
<polyline fill="none" stroke="#000000" points="1222.9007,-950.9059 1222.9007,-986.9059 "/>
<text text-anchor="middle" x="1252.4007" y="-966.4059" font-family="Helvetica,sans-Serif" font-size="10.00" fill="#000000">potamus</text>
</g>
<!-- horse -->
<g id="node66" class="node">
<title>horse</title>
<path fill="none" stroke="#000000" d="M1202.3962,-942.4015C1202.3962,-942.4015 1169.3962,-942.4015 1169.3962,-942.4015 1163.3962,-942.4015 1157.3962,-936.4015 1157.3962,-930.4015 1157.3962,-930.4015 1157.3962,-918.4015 1157.3962,-918.4015 1157.3962,-912.4015 1163.3962,-906.4015 1169.3962,-906.4015 1169.3962,-906.4015 1202.3962,-906.4015 1202.3962,-906.4015 1208.3962,-906.4015 1214.3962,-912.4015 1214.3962,-918.4015 1214.3962,-918.4015 1214.3962,-930.4015 1214.3962,-930.4015 1214.3962,-936.4015 1208.3962,-942.4015 1202.3962,-942.4015"/>
<text text-anchor="middle" x="1185.8962" y="-920.7015" font-family="Helvetica,sans-Serif" font-size="14.00" fill="#000000">horse</text>
</g>
<!-- hippopotamus&#45;&#45;horse -->
<g id="edge38" class="edge">
<title>hippopotamus:hippo&#45;&#45;horse</title>
<path fill="none" stroke="#000000" d="M1200.4007,-950.9059C1200.4007,-950.9059 1198.361,-947.1787 1195.8114,-942.5197"/>
</g>
<!-- river -->
<g id="node86" class="node">
<title>river</title>
<path fill="none" stroke="#000000" d="M1289.9051,-1031.4104C1289.9051,-1031.4104 1259.9051,-1031.4104 1259.9051,-1031.4104 1253.9051,-1031.4104 1247.9051,-1025.4104 1247.9051,-1019.4104 1247.9051,-1019.4104 1247.9051,-1007.4104 1247.9051,-1007.4104 1247.9051,-1001.4104 1253.9051,-995.4104 1259.9051,-995.4104 1259.9051,-995.4104 1289.9051,-995.4104 1289.9051,-995.4104 1295.9051,-995.4104 1301.9051,-1001.4104 1301.9051,-1007.4104 1301.9051,-1007.4104 1301.9051,-1019.4104 1301.9051,-1019.4104 1301.9051,-1025.4104 1295.9051,-1031.4104 1289.9051,-1031.4104"/>
<text text-anchor="middle" x="1274.9051" y="-1009.7104" font-family="Helvetica,sans-Serif" font-size="14.00" fill="#000000">river</text>
</g>
<!-- hippopotamus&#45;&#45;river -->
<g id="edge37" class="edge">
<title>hippopotamus:potamus&#45;&#45;river</title>
<path fill="none" stroke="#000000" d="M1252.4007,-986.9059C1252.4007,-986.9059 1255.5654,-990.6331 1259.5212,-995.2921"/>
</g>
<!-- hippodrome -->
<g id="node24" class="node">
<title>hippodrome</title>
<polygon fill="none" stroke="#000000" points="1095.3918,-861.897 1095.3918,-897.897 1187.3918,-897.897 1187.3918,-861.897 1095.3918,-861.897"/>
<text text-anchor="middle" x="1117.3918" y="-877.397" font-family="Helvetica,sans-Serif" font-size="10.00" fill="#000000">hippo</text>
<polyline fill="none" stroke="#000000" points="1139.3918,-861.897 1139.3918,-897.897 "/>
<text text-anchor="middle" x="1163.3918" y="-877.397" font-family="Helvetica,sans-Serif" font-size="10.00" fill="#000000">drome</text>
</g>
<!-- road -->
<g id="node65" class="node">
<title>road</title>
<path fill="none" stroke="#000000" d="M1111.8873,-853.3926C1111.8873,-853.3926 1081.8873,-853.3926 1081.8873,-853.3926 1075.8873,-853.3926 1069.8873,-847.3926 1069.8873,-841.3926 1069.8873,-841.3926 1069.8873,-829.3926 1069.8873,-829.3926 1069.8873,-823.3926 1075.8873,-817.3926 1081.8873,-817.3926 1081.8873,-817.3926 1111.8873,-817.3926 1111.8873,-817.3926 1117.8873,-817.3926 1123.8873,-823.3926 1123.8873,-829.3926 1123.8873,-829.3926 1123.8873,-841.3926 1123.8873,-841.3926 1123.8873,-847.3926 1117.8873,-853.3926 1111.8873,-853.3926"/>
<text text-anchor="middle" x="1096.8873" y="-831.6926" font-family="Helvetica,sans-Serif" font-size="14.00" fill="#000000">road</text>
</g>
<!-- hippodrome&#45;&#45;road -->
<g id="edge40" class="edge">
<title>hippodrome:drome&#45;&#45;road</title>
<path fill="none" stroke="#000000" d="M1163.3918,-861.897C1163.3918,-861.897 1134.6667,-859.5975 1127.0873,-856.5926 1124.9469,-855.7439 1122.8112,-854.7167 1120.7213,-853.5779"/>
</g>
<!-- hippodrome&#45;&#45;horse -->
<g id="edge39" class="edge">
<title>hippodrome:hippo&#45;&#45;horse</title>
<path fill="none" stroke="#000000" d="M1117.3918,-897.897C1117.3918,-897.897 1146.4779,-900.2503 1154.1962,-903.2015 1156.4193,-904.0515 1158.644,-905.0797 1160.8259,-906.2191"/>
</g>
<!-- confidence -->
<g id="node25" class="node">
<title>confidence</title>
<polygon fill="none" stroke="#000000" points="402.0774,-737.4502 402.0774,-773.4502 489.0774,-773.4502 489.0774,-737.4502 402.0774,-737.4502"/>
<text text-anchor="middle" x="419.0774" y="-752.9502" font-family="Helvetica,sans-Serif" font-size="10.00" fill="#000000">con</text>
<polyline fill="none" stroke="#000000" points="436.0774,-737.4502 436.0774,-773.4502 "/>
<text text-anchor="middle" x="462.5774" y="-752.9502" font-family="Helvetica,sans-Serif" font-size="10.00" fill="#000000">fidence</text>
</g>
<!-- confidence&#45;&#45;with -->
<g id="edge45" class="edge">
<title>confidence:con&#45;&#45;with</title>
<path fill="none" stroke="#000000" d="M418.5774,-737.4502C418.5774,-737.4502 210.1449,-489.978 201.8029,-472.9063 194.4071,-457.7709 190.6255,-438.8684 188.7321,-425.2257"/>
</g>
<!-- faith -->
<g id="node87" class="node">
<title>faith</title>
<path fill="none" stroke="#000000" d="M470.2723,-818.0705C470.2723,-818.0705 440.2723,-818.0705 440.2723,-818.0705 434.2723,-818.0705 428.2723,-812.0705 428.2723,-806.0705 428.2723,-806.0705 428.2723,-794.0705 428.2723,-794.0705 428.2723,-788.0705 434.2723,-782.0705 440.2723,-782.0705 440.2723,-782.0705 470.2723,-782.0705 470.2723,-782.0705 476.2723,-782.0705 482.2723,-788.0705 482.2723,-794.0705 482.2723,-794.0705 482.2723,-806.0705 482.2723,-806.0705 482.2723,-812.0705 476.2723,-818.0705 470.2723,-818.0705"/>
<text text-anchor="middle" x="455.2723" y="-796.3705" font-family="Helvetica,sans-Serif" font-size="14.00" fill="#000000">faith</text>
</g>
<!-- confidence&#45;&#45;faith -->
<g id="edge44" class="edge">
<title>confidence:fidence&#45;&#45;faith</title>
<path fill="none" stroke="#000000" d="M462.5774,-773.4502C462.5774,-773.4502 461.5501,-777.1937 460.266,-781.873"/>
</g>
<!-- complicate -->
<g id="node26" class="node">
<title>complicate</title>
<polygon fill="none" stroke="#000000" points="305.8675,-721.828 305.8675,-757.828 393.8675,-757.828 393.8675,-721.828 305.8675,-721.828"/>
<text text-anchor="middle" x="324.8675" y="-737.328" font-family="Helvetica,sans-Serif" font-size="10.00" fill="#000000">com</text>
<polyline fill="none" stroke="#000000" points="343.8675,-721.828 343.8675,-757.828 "/>
<text text-anchor="middle" x="368.8675" y="-737.328" font-family="Helvetica,sans-Serif" font-size="10.00" fill="#000000">plicate</text>
</g>
<!-- fold -->
<g id="node62" class="node">
<title>fold</title>
<path fill="none" stroke="#000000" d="M355.8463,-802.4065C355.8463,-802.4065 325.8463,-802.4065 325.8463,-802.4065 319.8463,-802.4065 313.8463,-796.4065 313.8463,-790.4065 313.8463,-790.4065 313.8463,-778.4065 313.8463,-778.4065 313.8463,-772.4065 319.8463,-766.4065 325.8463,-766.4065 325.8463,-766.4065 355.8463,-766.4065 355.8463,-766.4065 361.8463,-766.4065 367.8463,-772.4065 367.8463,-778.4065 367.8463,-778.4065 367.8463,-790.4065 367.8463,-790.4065 367.8463,-796.4065 361.8463,-802.4065 355.8463,-802.4065"/>
<text text-anchor="middle" x="340.8463" y="-780.7065" font-family="Helvetica,sans-Serif" font-size="14.00" fill="#000000">fold</text>
</g>
<!-- complicate&#45;&#45;fold -->
<g id="edge58" class="edge">
<title>complicate:plicate&#45;&#45;fold</title>
<path fill="none" stroke="#000000" d="M368.8675,-757.828C368.8675,-757.828 364.927,-761.5656 360.0014,-766.2376"/>
</g>
<!-- complicate&#45;&#45;with -->
<g id="edge57" class="edge">
<title>complicate:con&#45;&#45;with</title>
<path fill="none" stroke="#000000" d="M344.308,-721.4784C334.7186,-691.1375 313.421,-629.1118 285.8992,-581.2389 255.5205,-528.3965 227.8386,-528.0183 201.8029,-472.9063 194.6572,-457.7805 190.8536,-439.0464 188.888,-425.4548"/>
</g>
<!-- contain -->
<g id="node27" class="node">
<title>contain</title>
<polygon fill="none" stroke="#000000" points="213.6992,-584.4389 213.6992,-620.4389 282.6992,-620.4389 282.6992,-584.4389 213.6992,-584.4389"/>
<text text-anchor="middle" x="230.6992" y="-599.9389" font-family="Helvetica,sans-Serif" font-size="10.00" fill="#000000">con</text>
<polyline fill="none" stroke="#000000" points="247.6992,-584.4389 247.6992,-620.4389 "/>
<text text-anchor="middle" x="265.1992" y="-599.9389" font-family="Helvetica,sans-Serif" font-size="10.00" fill="#000000">tain</text>
</g>
<!-- hold -->
<g id="node63" class="node">
<title>hold</title>
<path fill="none" stroke="#000000" d="M193.6127,-642.9122C193.6127,-642.9122 163.6127,-642.9122 163.6127,-642.9122 157.6127,-642.9122 151.6127,-636.9122 151.6127,-630.9122 151.6127,-630.9122 151.6127,-618.9122 151.6127,-618.9122 151.6127,-612.9122 157.6127,-606.9122 163.6127,-606.9122 163.6127,-606.9122 193.6127,-606.9122 193.6127,-606.9122 199.6127,-606.9122 205.6127,-612.9122 205.6127,-618.9122 205.6127,-618.9122 205.6127,-630.9122 205.6127,-630.9122 205.6127,-636.9122 199.6127,-642.9122 193.6127,-642.9122"/>
<text text-anchor="middle" x="178.6127" y="-621.2122" font-family="Helvetica,sans-Serif" font-size="14.00" fill="#000000">hold</text>
</g>
<!-- contain&#45;&#45;hold -->
<g id="edge56" class="edge">
<title>contain:tain&#45;&#45;hold</title>
<path fill="none" stroke="#000000" d="M265.1009,-620.4574C265.1009,-620.4574 234.7785,-622.447 210.4992,-623.6389 208.9498,-623.715 207.3579,-623.7897 205.7512,-623.8623"/>
</g>
<!-- contain&#45;&#45;with -->
<g id="edge55" class="edge">
<title>contain:con&#45;&#45;with</title>
<path fill="none" stroke="#000000" d="M230.1992,-584.4389C230.1992,-584.4389 213.7596,-522.6407 201.8029,-472.9063 197.9472,-456.8685 193.8267,-438.5603 190.9028,-425.3479"/>
</g>
<!-- contact -->
<g id="node28" class="node">
<title>contact</title>
<polygon fill="none" stroke="#000000" points="93.0761,-344.6661 93.0761,-380.6661 162.0761,-380.6661 162.0761,-344.6661 93.0761,-344.6661"/>
<text text-anchor="middle" x="110.0761" y="-360.1661" font-family="Helvetica,sans-Serif" font-size="10.00" fill="#000000">con</text>
<polyline fill="none" stroke="#000000" points="127.0761,-344.6661 127.0761,-380.6661 "/>
<text text-anchor="middle" x="144.5761" y="-360.1661" font-family="Helvetica,sans-Serif" font-size="10.00" fill="#000000">tact</text>
</g>
<!-- contact&#45;&#45;with -->
<g id="edge48" class="edge">
<title>contact:con&#45;&#45;with</title>
<path fill="none" stroke="#000000" d="M109.5761,-380.6661C109.5761,-380.6661 151.7968,-384.1228 156.7293,-385.9855 159.003,-386.8442 161.2672,-387.9128 163.4745,-389.1102"/>
</g>
<!-- touching -->
<g id="node88" class="node">
<title>touching</title>
<path fill="none" stroke="#000000" d="M86.0677,-336.1268C86.0677,-336.1268 32.0677,-336.1268 32.0677,-336.1268 26.0677,-336.1268 20.0677,-330.1268 20.0677,-324.1268 20.0677,-324.1268 20.0677,-312.1268 20.0677,-312.1268 20.0677,-306.1268 26.0677,-300.1268 32.0677,-300.1268 32.0677,-300.1268 86.0677,-300.1268 86.0677,-300.1268 92.0677,-300.1268 98.0677,-306.1268 98.0677,-312.1268 98.0677,-312.1268 98.0677,-324.1268 98.0677,-324.1268 98.0677,-330.1268 92.0677,-336.1268 86.0677,-336.1268"/>
<text text-anchor="middle" x="59.0677" y="-314.4268" font-family="Helvetica,sans-Serif" font-size="14.00" fill="#000000">touching</text>
</g>
<!-- contact&#45;&#45;touching -->
<g id="edge49" class="edge">
<title>contact:tact&#45;&#45;touching</title>
<path fill="none" stroke="#000000" d="M144.5761,-344.6661C144.5761,-344.6661 110.5509,-342.129 101.2677,-339.3268 98.4447,-338.4747 95.5812,-337.4449 92.7443,-336.3044"/>
</g>
<!-- compose -->
<g id="node29" class="node">
<title>compose</title>
<polygon fill="none" stroke="#000000" points="349.0188,-369.808 349.0188,-405.808 427.0188,-405.808 427.0188,-369.808 349.0188,-369.808"/>
<text text-anchor="middle" x="368.0188" y="-385.308" font-family="Helvetica,sans-Serif" font-size="10.00" fill="#000000">com</text>
<polyline fill="none" stroke="#000000" points="387.0188,-369.808 387.0188,-405.808 "/>
<text text-anchor="middle" x="407.0188" y="-385.308" font-family="Helvetica,sans-Serif" font-size="10.00" fill="#000000">pose</text>
</g>
<!-- compose&#45;&#45;with -->
<g id="edge46" class="edge">
<title>compose:com&#45;&#45;with</title>
<path fill="none" stroke="#000000" d="M349.0188,-387.808C349.0188,-387.808 260.2023,-398.4259 214.0594,-403.9422"/>
</g>
<!-- compose&#45;&#45;putting -->
<g id="edge47" class="edge">
<title>compose:pose&#45;&#45;putting</title>
<path fill="none" stroke="#000000" d="M407.0188,-369.808C407.0188,-369.808 403.8921,-366.0611 399.9838,-361.3774"/>
</g>
<!-- consequence -->
<g id="node30" class="node">
<title>consequence</title>
<polygon fill="none" stroke="#000000" points="482.3179,-418.1939 482.3179,-454.1939 579.3179,-454.1939 579.3179,-418.1939 482.3179,-418.1939"/>
<text text-anchor="middle" x="499.3179" y="-433.6939" font-family="Helvetica,sans-Serif" font-size="10.00" fill="#000000">con</text>
<polyline fill="none" stroke="#000000" points="516.3179,-418.1939 516.3179,-454.1939 "/>
<text text-anchor="middle" x="547.8179" y="-433.6939" font-family="Helvetica,sans-Serif" font-size="10.00" fill="#000000">sequence</text>
</g>
<!-- consequence&#45;&#45;with -->
<g id="edge50" class="edge">
<title>consequence:con&#45;&#45;with</title>
<path fill="none" stroke="#000000" d="M481.8179,-436.1939C481.8179,-436.1939 287.1453,-417.0438 214.1431,-409.8626"/>
</g>
<!-- convince -->
<g id="node31" class="node">
<title>convince</title>
<polygon fill="none" stroke="#000000" points="502.7657,-475.2645 502.7657,-511.2645 579.7657,-511.2645 579.7657,-475.2645 502.7657,-475.2645"/>
<text text-anchor="middle" x="519.7657" y="-490.7645" font-family="Helvetica,sans-Serif" font-size="10.00" fill="#000000">con</text>
<polyline fill="none" stroke="#000000" points="536.7657,-475.2645 536.7657,-511.2645 "/>
<text text-anchor="middle" x="558.2657" y="-490.7645" font-family="Helvetica,sans-Serif" font-size="10.00" fill="#000000">vince</text>
</g>
<!-- convince&#45;&#45;with -->
<g id="edge51" class="edge">
<title>convince:con&#45;&#45;with</title>
<path fill="none" stroke="#000000" d="M502.2657,-493.2645C502.2657,-493.2645 388.2984,-454.5968 295.2029,-430.5063 267.8382,-423.4251 236.1994,-416.7867 214.2179,-412.4175"/>
</g>
<!-- victory -->
<g id="node89" class="node">
<title>victory</title>
<path fill="none" stroke="#000000" d="M641.3079,-478.3998C641.3079,-478.3998 600.3079,-478.3998 600.3079,-478.3998 594.3079,-478.3998 588.3079,-472.3998 588.3079,-466.3998 588.3079,-466.3998 588.3079,-454.3998 588.3079,-454.3998 588.3079,-448.3998 594.3079,-442.3998 600.3079,-442.3998 600.3079,-442.3998 641.3079,-442.3998 641.3079,-442.3998 647.3079,-442.3998 653.3079,-448.3998 653.3079,-454.3998 653.3079,-454.3998 653.3079,-466.3998 653.3079,-466.3998 653.3079,-472.3998 647.3079,-478.3998 641.3079,-478.3998"/>
<text text-anchor="middle" x="620.8079" y="-456.6998" font-family="Helvetica,sans-Serif" font-size="14.00" fill="#000000">victory</text>
</g>
<!-- convince&#45;&#45;victory -->
<g id="edge52" class="edge">
<title>convince:vince&#45;&#45;victory</title>
<path fill="none" stroke="#000000" d="M580.2657,-493.2645C580.2657,-493.2645 581.4338,-485.8436 585.1079,-481.5998 586.0496,-480.5121 587.0614,-479.465 588.1267,-478.4587"/>
</g>
<!-- condemn -->
<g id="node32" class="node">
<title>condemn</title>
<polygon fill="none" stroke="#000000" points="525.4997,-520.6266 525.4997,-556.6266 603.4997,-556.6266 603.4997,-520.6266 525.4997,-520.6266"/>
<text text-anchor="middle" x="542.4997" y="-536.1266" font-family="Helvetica,sans-Serif" font-size="10.00" fill="#000000">con</text>
<polyline fill="none" stroke="#000000" points="559.4997,-520.6266 559.4997,-556.6266 "/>
<text text-anchor="middle" x="581.4997" y="-536.1266" font-family="Helvetica,sans-Serif" font-size="10.00" fill="#000000">demn</text>
</g>
<!-- condemn&#45;&#45;with -->
<g id="edge53" class="edge">
<title>condemn:con&#45;&#45;with</title>
<path fill="none" stroke="#000000" d="M525.4997,-538.6266C525.4997,-538.6266 402.337,-466.6696 295.2029,-430.5063 268.2393,-421.4047 236.2642,-415.0324 214.0842,-411.2756"/>
</g>
<!-- damn -->
<g id="node90" class="node">
<title>damn</title>
<path fill="none" stroke="#000000" d="M658.1116,-546.8578C658.1116,-546.8578 624.1116,-546.8578 624.1116,-546.8578 618.1116,-546.8578 612.1116,-540.8578 612.1116,-534.8578 612.1116,-534.8578 612.1116,-522.8578 612.1116,-522.8578 612.1116,-516.8578 618.1116,-510.8578 624.1116,-510.8578 624.1116,-510.8578 658.1116,-510.8578 658.1116,-510.8578 664.1116,-510.8578 670.1116,-516.8578 670.1116,-522.8578 670.1116,-522.8578 670.1116,-534.8578 670.1116,-534.8578 670.1116,-540.8578 664.1116,-546.8578 658.1116,-546.8578"/>
<text text-anchor="middle" x="641.1116" y="-525.1578" font-family="Helvetica,sans-Serif" font-size="14.00" fill="#000000">damn</text>
</g>
<!-- condemn&#45;&#45;damn -->
<g id="edge54" class="edge">
<title>condemn:demn&#45;&#45;damn</title>
<path fill="none" stroke="#000000" d="M603.4997,-538.6266C603.4997,-538.6266 606.9914,-537.7198 611.847,-536.4586"/>
</g>
<!-- transpose -->
<g id="node33" class="node">
<title>transpose</title>
<polygon fill="none" stroke="#000000" points="380.8479,-279.5991 380.8479,-315.5991 461.8479,-315.5991 461.8479,-279.5991 380.8479,-279.5991"/>
<text text-anchor="middle" x="401.3479" y="-295.0991" font-family="Helvetica,sans-Serif" font-size="10.00" fill="#000000">trans</text>
<polyline fill="none" stroke="#000000" points="421.8479,-279.5991 421.8479,-315.5991 "/>
<text text-anchor="middle" x="441.8479" y="-295.0991" font-family="Helvetica,sans-Serif" font-size="10.00" fill="#000000">pose</text>
</g>
<!-- across -->
<g id="node61" class="node">
<title>across</title>
<path fill="none" stroke="#000000" d="M443.8762,-270.4569C443.8762,-270.4569 404.8762,-270.4569 404.8762,-270.4569 398.8762,-270.4569 392.8762,-264.4569 392.8762,-258.4569 392.8762,-258.4569 392.8762,-246.4569 392.8762,-246.4569 392.8762,-240.4569 398.8762,-234.4569 404.8762,-234.4569 404.8762,-234.4569 443.8762,-234.4569 443.8762,-234.4569 449.8762,-234.4569 455.8762,-240.4569 455.8762,-246.4569 455.8762,-246.4569 455.8762,-258.4569 455.8762,-258.4569 455.8762,-264.4569 449.8762,-270.4569 443.8762,-270.4569"/>
<text text-anchor="middle" x="424.3762" y="-248.7569" font-family="Helvetica,sans-Serif" font-size="14.00" fill="#000000">across</text>
</g>
<!-- transpose&#45;&#45;across -->
<g id="edge59" class="edge">
<title>transpose:trans&#45;&#45;across</title>
<path fill="none" stroke="#000000" d="M401.3479,-279.5991C401.3479,-279.5991 404.7226,-275.6216 408.8883,-270.7118"/>
</g>
<!-- transpose&#45;&#45;putting -->
<g id="edge60" class="edge">
<title>transpose:pose&#45;&#45;putting</title>
<path fill="none" stroke="#000000" d="M442.3479,-315.5991C442.3479,-315.5991 430.3797,-318.1084 421.4846,-321.9631 419.3267,-322.8982 417.1348,-323.9293 414.9511,-325.0176"/>
</g>
<!-- transfer -->
<g id="node34" class="node">
<title>transfer</title>
<polygon fill="none" stroke="#000000" points="336.1471,-187.7527 336.1471,-223.7527 407.1471,-223.7527 407.1471,-187.7527 336.1471,-187.7527"/>
<text text-anchor="middle" x="356.6471" y="-203.2527" font-family="Helvetica,sans-Serif" font-size="10.00" fill="#000000">trans</text>
<polyline fill="none" stroke="#000000" points="377.1471,-187.7527 377.1471,-223.7527 "/>
<text text-anchor="middle" x="392.1471" y="-203.2527" font-family="Helvetica,sans-Serif" font-size="10.00" fill="#000000">fer</text>
</g>
<!-- bringing -->
<g id="node60" class="node">
<title>bringing</title>
<path fill="none" stroke="#000000" d="M394.6052,-179.2459C394.6052,-179.2459 343.6052,-179.2459 343.6052,-179.2459 337.6052,-179.2459 331.6052,-173.2459 331.6052,-167.2459 331.6052,-167.2459 331.6052,-155.2459 331.6052,-155.2459 331.6052,-149.2459 337.6052,-143.2459 343.6052,-143.2459 343.6052,-143.2459 394.6052,-143.2459 394.6052,-143.2459 400.6052,-143.2459 406.6052,-149.2459 406.6052,-155.2459 406.6052,-155.2459 406.6052,-167.2459 406.6052,-167.2459 406.6052,-173.2459 400.6052,-179.2459 394.6052,-179.2459"/>
<text text-anchor="middle" x="369.1052" y="-157.5459" font-family="Helvetica,sans-Serif" font-size="14.00" fill="#000000">bringing</text>
</g>
<!-- transfer&#45;&#45;bringing -->
<g id="edge62" class="edge">
<title>transfer:fer&#45;&#45;bringing</title>
<path fill="none" stroke="#000000" d="M392.6471,-187.7527C392.6471,-187.7527 389.3365,-184.0252 385.1983,-179.3658"/>
</g>
<!-- transfer&#45;&#45;across -->
<g id="edge61" class="edge">
<title>transfer:trans&#45;&#45;across</title>
<path fill="none" stroke="#000000" d="M356.6471,-223.7527C356.6471,-223.7527 375.7237,-225.6052 389.6762,-231.2569 391.898,-232.157 394.1418,-233.1901 396.3624,-234.3051"/>
</g>
<!-- betray -->
<g id="node35" class="node">
<title>betray</title>
<polygon fill="none" stroke="#000000" points="553.7992,-235.7898 553.7992,-271.7898 618.7992,-271.7898 618.7992,-235.7898 553.7992,-235.7898"/>
<text text-anchor="middle" x="568.2992" y="-251.2898" font-family="Helvetica,sans-Serif" font-size="10.00" fill="#000000">be</text>
<polyline fill="none" stroke="#000000" points="582.7992,-235.7898 582.7992,-271.7898 "/>
<text text-anchor="middle" x="600.7992" y="-251.2898" font-family="Helvetica,sans-Serif" font-size="10.00" fill="#000000">tray</text>
</g>
<!-- betray&#45;&#45;across -->
<g id="edge63" class="edge">
<title>betray:tray&#45;&#45;across</title>
<path fill="none" stroke="#000000" d="M601.2014,-235.7689C601.2014,-235.7689 573.1089,-231.5381 550.5992,-232.5898 518.1358,-234.1065 481.4913,-240.3935 456.0824,-245.4944"/>
</g>
<!-- metaphor -->
<g id="node36" class="node">
<title>metaphor</title>
<polygon fill="none" stroke="#000000" points="191.1081,-123.3413 191.1081,-159.3413 271.1081,-159.3413 271.1081,-123.3413 191.1081,-123.3413"/>
<text text-anchor="middle" x="212.1081" y="-138.8413" font-family="Helvetica,sans-Serif" font-size="10.00" fill="#000000">meta</text>
<polyline fill="none" stroke="#000000" points="233.1081,-123.3413 233.1081,-159.3413 "/>
<text text-anchor="middle" x="252.1081" y="-138.8413" font-family="Helvetica,sans-Serif" font-size="10.00" fill="#000000">phor</text>
</g>
<!-- metaphor&#45;&#45;bringing -->
<g id="edge65" class="edge">
<title>metaphor:phor&#45;&#45;bringing</title>
<path fill="none" stroke="#000000" d="M271.1081,-141.3413C271.1081,-141.3413 303.8615,-147.994 331.4972,-153.6072"/>
</g>
<!-- after -->
<g id="node91" class="node">
<title>after</title>
<path fill="none" stroke="#000000" d="M227.1536,-113.3091C227.1536,-113.3091 197.1536,-113.3091 197.1536,-113.3091 191.1536,-113.3091 185.1536,-107.3091 185.1536,-101.3091 185.1536,-101.3091 185.1536,-89.3091 185.1536,-89.3091 185.1536,-83.3091 191.1536,-77.3091 197.1536,-77.3091 197.1536,-77.3091 227.1536,-77.3091 227.1536,-77.3091 233.1536,-77.3091 239.1536,-83.3091 239.1536,-89.3091 239.1536,-89.3091 239.1536,-101.3091 239.1536,-101.3091 239.1536,-107.3091 233.1536,-113.3091 227.1536,-113.3091"/>
<text text-anchor="middle" x="212.1536" y="-91.6091" font-family="Helvetica,sans-Serif" font-size="14.00" fill="#000000">after</text>
</g>
<!-- metaphor&#45;&#45;after -->
<g id="edge64" class="edge">
<title>metaphor:meta&#45;&#45;after</title>
<path fill="none" stroke="#000000" d="M212.1081,-123.3413C212.1081,-123.3413 212.1153,-118.8911 212.124,-113.537"/>
</g>
<!-- euphoria -->
<g id="node37" class="node">
<title>euphoria</title>
<polygon fill="none" stroke="#000000" points="328.051,-98.7226 328.051,-134.7226 404.051,-134.7226 404.051,-98.7226 328.051,-98.7226"/>
<text text-anchor="middle" x="342.551" y="-114.2226" font-family="Helvetica,sans-Serif" font-size="10.00" fill="#000000">eu</text>
<polyline fill="none" stroke="#000000" points="357.051,-98.7226 357.051,-134.7226 "/>
<text text-anchor="middle" x="380.551" y="-114.2226" font-family="Helvetica,sans-Serif" font-size="10.00" fill="#000000">phoria</text>
</g>
<!-- euphoria&#45;&#45;bringing -->
<g id="edge67" class="edge">
<title>euphoria:phoria&#45;&#45;bringing</title>
<path fill="none" stroke="#000000" d="M381.051,-134.7226C381.051,-134.7226 379.3712,-138.4525 377.2713,-143.1147"/>
</g>
<!-- good -->
<g id="node92" class="node">
<title>good</title>
<path fill="none" stroke="#000000" d="M377.6317,-90.1916C377.6317,-90.1916 347.6317,-90.1916 347.6317,-90.1916 341.6317,-90.1916 335.6317,-84.1916 335.6317,-78.1916 335.6317,-78.1916 335.6317,-66.1916 335.6317,-66.1916 335.6317,-60.1916 341.6317,-54.1916 347.6317,-54.1916 347.6317,-54.1916 377.6317,-54.1916 377.6317,-54.1916 383.6317,-54.1916 389.6317,-60.1916 389.6317,-66.1916 389.6317,-66.1916 389.6317,-78.1916 389.6317,-78.1916 389.6317,-84.1916 383.6317,-90.1916 377.6317,-90.1916"/>
<text text-anchor="middle" x="362.6317" y="-68.4916" font-family="Helvetica,sans-Serif" font-size="14.00" fill="#000000">good</text>
</g>
<!-- euphoria&#45;&#45;good -->
<g id="edge66" class="edge">
<title>euphoria:eu&#45;&#45;good</title>
<path fill="none" stroke="#000000" d="M342.051,-98.7226C342.051,-98.7226 344.9452,-94.9917 348.5629,-90.328"/>
</g>
<!-- lucifer -->
<g id="node38" class="node">
<title>lucifer</title>
<polygon fill="none" stroke="#000000" points="467.0632,-113.3357 467.0632,-149.3357 531.0632,-149.3357 531.0632,-113.3357 467.0632,-113.3357"/>
<text text-anchor="middle" x="484.0632" y="-128.8357" font-family="Helvetica,sans-Serif" font-size="10.00" fill="#000000">luci</text>
<polyline fill="none" stroke="#000000" points="501.0632,-113.3357 501.0632,-149.3357 "/>
<text text-anchor="middle" x="516.0632" y="-128.8357" font-family="Helvetica,sans-Serif" font-size="10.00" fill="#000000">fer</text>
</g>
<!-- lucifer&#45;&#45;bringing -->
<g id="edge69" class="edge">
<title>lucifer:fer&#45;&#45;bringing</title>
<path fill="none" stroke="#000000" d="M516.0632,-149.3357C516.0632,-149.3357 450.4931,-154.6498 406.9505,-158.1787"/>
</g>
<!-- light -->
<g id="node93" class="node">
<title>light</title>
<path fill="none" stroke="#000000" d="M524.396,-104.7701C524.396,-104.7701 494.396,-104.7701 494.396,-104.7701 488.396,-104.7701 482.396,-98.7701 482.396,-92.7701 482.396,-92.7701 482.396,-80.7701 482.396,-80.7701 482.396,-74.7701 488.396,-68.7701 494.396,-68.7701 494.396,-68.7701 524.396,-68.7701 524.396,-68.7701 530.396,-68.7701 536.396,-74.7701 536.396,-80.7701 536.396,-80.7701 536.396,-92.7701 536.396,-92.7701 536.396,-98.7701 530.396,-104.7701 524.396,-104.7701"/>
<text text-anchor="middle" x="509.396" y="-83.0701" font-family="Helvetica,sans-Serif" font-size="14.00" fill="#000000">light</text>
</g>
<!-- lucifer&#45;&#45;light -->
<g id="edge68" class="edge">
<title>lucifer:luci&#45;&#45;light</title>
<path fill="none" stroke="#000000" d="M484.0632,-113.3357C484.0632,-113.3357 487.6256,-109.6 492.0787,-104.9302"/>
</g>
<!-- manifest -->
<g id="node39" class="node">
<title>manifest</title>
<polygon fill="none" stroke="#000000" points="113.5359,-841.1901 113.5359,-877.1901 189.5359,-877.1901 189.5359,-841.1901 113.5359,-841.1901"/>
<text text-anchor="middle" x="134.0359" y="-856.6901" font-family="Helvetica,sans-Serif" font-size="10.00" fill="#000000">mani</text>
<polyline fill="none" stroke="#000000" points="154.5359,-841.1901 154.5359,-877.1901 "/>
<text text-anchor="middle" x="172.0359" y="-856.6901" font-family="Helvetica,sans-Serif" font-size="10.00" fill="#000000">fest</text>
</g>
<!-- hand -->
<g id="node59" class="node">
<title>hand</title>
<path fill="none" stroke="#000000" d="M156.3954,-755.6316C156.3954,-755.6316 126.3954,-755.6316 126.3954,-755.6316 120.3954,-755.6316 114.3954,-749.6316 114.3954,-743.6316 114.3954,-743.6316 114.3954,-731.6316 114.3954,-731.6316 114.3954,-725.6316 120.3954,-719.6316 126.3954,-719.6316 126.3954,-719.6316 156.3954,-719.6316 156.3954,-719.6316 162.3954,-719.6316 168.3954,-725.6316 168.3954,-731.6316 168.3954,-731.6316 168.3954,-743.6316 168.3954,-743.6316 168.3954,-749.6316 162.3954,-755.6316 156.3954,-755.6316"/>
<text text-anchor="middle" x="141.3954" y="-733.9316" font-family="Helvetica,sans-Serif" font-size="14.00" fill="#000000">hand</text>
</g>
<!-- manifest&#45;&#45;hand -->
<g id="edge70" class="edge">
<title>manifest:mani&#45;&#45;hand</title>
<path fill="none" stroke="#000000" d="M133.5359,-841.1901C133.5359,-841.1901 137.7746,-785.3403 140.0264,-755.6701"/>
</g>
<!-- manage -->
<g id="node40" class="node">
<title>manage</title>
<polygon fill="none" stroke="#000000" points="38.5883,-764.5293 38.5883,-800.5293 111.5883,-800.5293 111.5883,-764.5293 38.5883,-764.5293"/>
<text text-anchor="middle" x="57.5883" y="-780.0293" font-family="Helvetica,sans-Serif" font-size="10.00" fill="#000000">man</text>
<polyline fill="none" stroke="#000000" points="76.5883,-764.5293 76.5883,-800.5293 "/>
<text text-anchor="middle" x="94.0883" y="-780.0293" font-family="Helvetica,sans-Serif" font-size="10.00" fill="#000000">age</text>
</g>
<!-- manage&#45;&#45;hand -->
<g id="edge71" class="edge">
<title>manage:man&#45;&#45;hand</title>
<path fill="none" stroke="#000000" d="M57.0883,-764.5293C57.0883,-764.5293 105.5322,-760.9463 111.1954,-758.8316 113.4723,-757.9814 115.7387,-756.9187 117.9475,-755.7253"/>
</g>
<!-- manipulate -->
<g id="node41" class="node">
<title>manipulate</title>
<polygon fill="none" stroke="#000000" points="0,-656.9685 0,-692.9685 88,-692.9685 88,-656.9685 0,-656.9685"/>
<text text-anchor="middle" x="20.5" y="-672.4685" font-family="Helvetica,sans-Serif" font-size="10.00" fill="#000000">mani</text>
<polyline fill="none" stroke="#000000" points="41,-656.9685 41,-692.9685 "/>
<text text-anchor="middle" x="64.5" y="-672.4685" font-family="Helvetica,sans-Serif" font-size="10.00" fill="#000000">pulate</text>
</g>
<!-- manipulate&#45;&#45;hand -->
<g id="edge72" class="edge">
<title>manipulate:mani&#45;&#45;hand</title>
<path fill="none" stroke="#000000" d="M20,-692.9685C20,-692.9685 78.3605,-714.4402 114.1519,-727.6084"/>
</g>
<!-- maintain -->
<g id="node42" class="node">
<title>maintain</title>
<polygon fill="none" stroke="#000000" points="169.7722,-674.2789 169.7722,-710.2789 245.7722,-710.2789 245.7722,-674.2789 169.7722,-674.2789"/>
<text text-anchor="middle" x="190.2722" y="-689.7789" font-family="Helvetica,sans-Serif" font-size="10.00" fill="#000000">main</text>
<polyline fill="none" stroke="#000000" points="210.7722,-674.2789 210.7722,-710.2789 "/>
<text text-anchor="middle" x="228.2722" y="-689.7789" font-family="Helvetica,sans-Serif" font-size="10.00" fill="#000000">tain</text>
</g>
<!-- maintain&#45;&#45;hand -->
<g id="edge73" class="edge">
<title>maintain:main&#45;&#45;hand</title>
<path fill="none" stroke="#000000" d="M169.7722,-692.2789C169.7722,-692.2789 160.6684,-706.8288 152.7738,-719.4463"/>
</g>
<!-- maintain&#45;&#45;hold -->
<g id="edge74" class="edge">
<title>maintain:tain&#45;&#45;hold</title>
<path fill="none" stroke="#000000" d="M228.7722,-674.2789C228.7722,-674.2789 211.3209,-657.1034 197.0054,-643.0142"/>
</g>
<!-- entertain -->
<g id="node43" class="node">
<title>entertain</title>
<polygon fill="none" stroke="#000000" points="115.1988,-541.2735 115.1988,-577.2735 192.1988,-577.2735 192.1988,-541.2735 115.1988,-541.2735"/>
<text text-anchor="middle" x="136.1988" y="-556.7735" font-family="Helvetica,sans-Serif" font-size="10.00" fill="#000000">enter</text>
<polyline fill="none" stroke="#000000" points="157.1988,-541.2735 157.1988,-577.2735 "/>
<text text-anchor="middle" x="174.6988" y="-556.7735" font-family="Helvetica,sans-Serif" font-size="10.00" fill="#000000">tain</text>
</g>
<!-- entertain&#45;&#45;hold -->
<g id="edge78" class="edge">
<title>entertain:tain&#45;&#45;hold</title>
<path fill="none" stroke="#000000" d="M174.6988,-577.2735C174.6988,-577.2735 176.0246,-593.4116 177.133,-606.902"/>
</g>
<!-- between -->
<g id="node95" class="node">
<title>between</title>
<path fill="none" stroke="#000000" d="M95.1621,-578.7487C95.1621,-578.7487 40.1621,-578.7487 40.1621,-578.7487 34.1621,-578.7487 28.1621,-572.7487 28.1621,-566.7487 28.1621,-566.7487 28.1621,-554.7487 28.1621,-554.7487 28.1621,-548.7487 34.1621,-542.7487 40.1621,-542.7487 40.1621,-542.7487 95.1621,-542.7487 95.1621,-542.7487 101.1621,-542.7487 107.1621,-548.7487 107.1621,-554.7487 107.1621,-554.7487 107.1621,-566.7487 107.1621,-566.7487 107.1621,-572.7487 101.1621,-578.7487 95.1621,-578.7487"/>
<text text-anchor="middle" x="67.6621" y="-557.0487" font-family="Helvetica,sans-Serif" font-size="14.00" fill="#000000">between</text>
</g>
<!-- entertain&#45;&#45;between -->
<g id="edge77" class="edge">
<title>entertain:enter&#45;&#45;between</title>
<path fill="none" stroke="#000000" d="M114.6988,-559.2735C114.6988,-559.2735 111.759,-559.3657 107.3493,-559.504"/>
</g>
<!-- abstain -->
<g id="node44" class="node">
<title>abstain</title>
<polygon fill="none" stroke="#000000" points="114.2052,-458.3697 114.2052,-494.3697 183.2052,-494.3697 183.2052,-458.3697 114.2052,-458.3697"/>
<text text-anchor="middle" x="131.2052" y="-473.8697" font-family="Helvetica,sans-Serif" font-size="10.00" fill="#000000">abs</text>
<polyline fill="none" stroke="#000000" points="148.2052,-458.3697 148.2052,-494.3697 "/>
<text text-anchor="middle" x="165.7052" y="-473.8697" font-family="Helvetica,sans-Serif" font-size="10.00" fill="#000000">tain</text>
</g>
<!-- abstain&#45;&#45;hold -->
<g id="edge76" class="edge">
<title>abstain:tain&#45;&#45;hold</title>
<path fill="none" stroke="#000000" d="M165.7052,-494.3697C165.7052,-494.3697 125.2141,-510.2815 111.9988,-538.0735 109.9757,-542.3281 109.7344,-576.3423 111.9988,-580.4735 114.3057,-584.6825 144.4216,-601.0461 148.4127,-603.7122 149.9019,-604.7069 151.4266,-605.7365 152.9612,-606.7814"/>
</g>
<!-- away -->
<g id="node94" class="node">
<title>away</title>
<path fill="none" stroke="#000000" d="M94.1473,-473.0351C94.1473,-473.0351 63.1473,-473.0351 63.1473,-473.0351 57.1473,-473.0351 51.1473,-467.0351 51.1473,-461.0351 51.1473,-461.0351 51.1473,-449.0351 51.1473,-449.0351 51.1473,-443.0351 57.1473,-437.0351 63.1473,-437.0351 63.1473,-437.0351 94.1473,-437.0351 94.1473,-437.0351 100.1473,-437.0351 106.1473,-443.0351 106.1473,-449.0351 106.1473,-449.0351 106.1473,-461.0351 106.1473,-461.0351 106.1473,-467.0351 100.1473,-473.0351 94.1473,-473.0351"/>
<text text-anchor="middle" x="78.6473" y="-451.3351" font-family="Helvetica,sans-Serif" font-size="14.00" fill="#000000">away</text>
</g>
<!-- abstain&#45;&#45;away -->
<g id="edge75" class="edge">
<title>abstain:abs&#45;&#45;away</title>
<path fill="none" stroke="#000000" d="M113.7052,-476.3697C113.7052,-476.3697 111.1888,-476.8383 109.3473,-476.2351 106.8889,-475.4299 104.4492,-474.3612 102.0824,-473.131"/>
</g>
<!-- syndrome -->
<g id="node45" class="node">
<title>syndrome</title>
<polygon fill="none" stroke="#000000" points="1011.3829,-772.8881 1011.3829,-808.8881 1093.3829,-808.8881 1093.3829,-772.8881 1011.3829,-772.8881"/>
<text text-anchor="middle" x="1028.3829" y="-788.3881" font-family="Helvetica,sans-Serif" font-size="10.00" fill="#000000">syn</text>
<polyline fill="none" stroke="#000000" points="1045.3829,-772.8881 1045.3829,-808.8881 "/>
<text text-anchor="middle" x="1069.3829" y="-788.3881" font-family="Helvetica,sans-Serif" font-size="10.00" fill="#000000">drome</text>
</g>
<!-- WITH -->
<g id="node58" class="node">
<title>WITH</title>
<path fill="none" stroke="#000000" d="M934.3695,-801.2523C934.3695,-801.2523 903.3695,-801.2523 903.3695,-801.2523 897.3695,-801.2523 891.3695,-795.2523 891.3695,-789.2523 891.3695,-789.2523 891.3695,-777.2523 891.3695,-777.2523 891.3695,-771.2523 897.3695,-765.2523 903.3695,-765.2523 903.3695,-765.2523 934.3695,-765.2523 934.3695,-765.2523 940.3695,-765.2523 946.3695,-771.2523 946.3695,-777.2523 946.3695,-777.2523 946.3695,-789.2523 946.3695,-789.2523 946.3695,-795.2523 940.3695,-801.2523 934.3695,-801.2523"/>
<text text-anchor="middle" x="918.8695" y="-779.5523" font-family="Helvetica,sans-Serif" font-size="14.00" fill="#000000">WITH</text>
</g>
<!-- syndrome&#45;&#45;WITH -->
<g id="edge79" class="edge">
<title>syndrome:syn&#45;&#45;WITH</title>
<path fill="none" stroke="#000000" d="M1011.3829,-790.8881C1011.3829,-790.8881 973.6465,-787.7735 946.3761,-785.5227"/>
</g>
<!-- syndrome&#45;&#45;road -->
<g id="edge82" class="edge">
<title>syndrome:drome&#45;&#45;road</title>
<path fill="none" stroke="#000000" d="M1069.3829,-808.8881C1069.3829,-808.8881 1073.2507,-812.6153 1078.0855,-817.2743"/>
</g>
<!-- symphony -->
<g id="node46" class="node">
<title>symphony</title>
<polygon fill="none" stroke="#000000" points="742.8562,-772.8881 742.8562,-808.8881 827.8562,-808.8881 827.8562,-772.8881 742.8562,-772.8881"/>
<text text-anchor="middle" x="761.8562" y="-788.3881" font-family="Helvetica,sans-Serif" font-size="10.00" fill="#000000">sym</text>
<polyline fill="none" stroke="#000000" points="780.8562,-772.8881 780.8562,-808.8881 "/>
<text text-anchor="middle" x="804.3562" y="-788.3881" font-family="Helvetica,sans-Serif" font-size="10.00" fill="#000000">phony</text>
</g>
<!-- voice -->
<g id="node56" class="node">
<title>voice</title>
<path fill="none" stroke="#000000" d="M755.8517,-853.3926C755.8517,-853.3926 725.8517,-853.3926 725.8517,-853.3926 719.8517,-853.3926 713.8517,-847.3926 713.8517,-841.3926 713.8517,-841.3926 713.8517,-829.3926 713.8517,-829.3926 713.8517,-823.3926 719.8517,-817.3926 725.8517,-817.3926 725.8517,-817.3926 755.8517,-817.3926 755.8517,-817.3926 761.8517,-817.3926 767.8517,-823.3926 767.8517,-829.3926 767.8517,-829.3926 767.8517,-841.3926 767.8517,-841.3926 767.8517,-847.3926 761.8517,-853.3926 755.8517,-853.3926"/>
<text text-anchor="middle" x="740.8517" y="-831.6926" font-family="Helvetica,sans-Serif" font-size="14.00" fill="#000000">voice</text>
</g>
<!-- symphony&#45;&#45;voice -->
<g id="edge83" class="edge">
<title>symphony:phony&#45;&#45;voice</title>
<path fill="none" stroke="#000000" d="M804.3562,-808.8881C804.3562,-808.8881 778.0005,-811.3857 771.0517,-814.1926 768.9168,-815.0549 766.785,-816.092 764.6979,-817.2376"/>
</g>
<!-- symphony&#45;&#45;WITH -->
<g id="edge80" class="edge">
<title>symphony:sym&#45;&#45;WITH</title>
<path fill="none" stroke="#000000" d="M761.3562,-772.8881C761.3562,-772.8881 833.4815,-747.5946 888.1695,-762.0523 890.9206,-762.7797 893.633,-763.8803 896.2386,-765.2044"/>
</g>
<!-- sympathy -->
<g id="node47" class="node">
<title>sympathy</title>
<polygon fill="none" stroke="#000000" points="877.8695,-702.3135 877.8695,-738.3135 959.8695,-738.3135 959.8695,-702.3135 877.8695,-702.3135"/>
<text text-anchor="middle" x="896.8695" y="-717.8135" font-family="Helvetica,sans-Serif" font-size="10.00" fill="#000000">sym</text>
<polyline fill="none" stroke="#000000" points="915.8695,-702.3135 915.8695,-738.3135 "/>
<text text-anchor="middle" x="937.8695" y="-717.8135" font-family="Helvetica,sans-Serif" font-size="10.00" fill="#000000">pathy</text>
</g>
<!-- suffering -->
<g id="node57" class="node">
<title>suffering</title>
<path fill="none" stroke="#000000" d="M946.8695,-675.3748C946.8695,-675.3748 890.8695,-675.3748 890.8695,-675.3748 884.8695,-675.3748 878.8695,-669.3748 878.8695,-663.3748 878.8695,-663.3748 878.8695,-651.3748 878.8695,-651.3748 878.8695,-645.3748 884.8695,-639.3748 890.8695,-639.3748 890.8695,-639.3748 946.8695,-639.3748 946.8695,-639.3748 952.8695,-639.3748 958.8695,-645.3748 958.8695,-651.3748 958.8695,-651.3748 958.8695,-663.3748 958.8695,-663.3748 958.8695,-669.3748 952.8695,-675.3748 946.8695,-675.3748"/>
<text text-anchor="middle" x="918.8695" y="-653.6748" font-family="Helvetica,sans-Serif" font-size="14.00" fill="#000000">suffering</text>
</g>
<!-- sympathy&#45;&#45;suffering -->
<g id="edge84" class="edge">
<title>sympathy:pathy&#45;&#45;suffering</title>
<path fill="none" stroke="#000000" d="M937.8695,-702.3135C937.8695,-702.3135 931.774,-687.8965 926.4881,-675.3941"/>
</g>
<!-- sympathy&#45;&#45;WITH -->
<g id="edge81" class="edge">
<title>sympathy:sym&#45;&#45;WITH</title>
<path fill="none" stroke="#000000" d="M896.8695,-738.3135C896.8695,-738.3135 903.9275,-752.7306 910.048,-765.233"/>
</g>
<!-- telephone -->
<g id="node48" class="node">
<title>telephone</title>
<polygon fill="none" stroke="#000000" points="655.3473,-861.897 655.3473,-897.897 737.3473,-897.897 737.3473,-861.897 655.3473,-861.897"/>
<text text-anchor="middle" x="672.8473" y="-877.397" font-family="Helvetica,sans-Serif" font-size="10.00" fill="#000000">tele</text>
<polyline fill="none" stroke="#000000" points="690.3473,-861.897 690.3473,-897.897 "/>
<text text-anchor="middle" x="713.8473" y="-877.397" font-family="Helvetica,sans-Serif" font-size="10.00" fill="#000000">phone</text>
</g>
<!-- telephone&#45;&#45;voice -->
<g id="edge85" class="edge">
<title>telephone:phone&#45;&#45;voice</title>
<path fill="none" stroke="#000000" d="M714.3473,-861.897C714.3473,-861.897 718.0745,-858.1698 722.7335,-853.5108"/>
</g>
<!-- far -->
<g id="node96" class="node">
<title>far</title>
<path fill="none" stroke="#000000" d="M666.8428,-942.4015C666.8428,-942.4015 636.8428,-942.4015 636.8428,-942.4015 630.8428,-942.4015 624.8428,-936.4015 624.8428,-930.4015 624.8428,-930.4015 624.8428,-918.4015 624.8428,-918.4015 624.8428,-912.4015 630.8428,-906.4015 636.8428,-906.4015 636.8428,-906.4015 666.8428,-906.4015 666.8428,-906.4015 672.8428,-906.4015 678.8428,-912.4015 678.8428,-918.4015 678.8428,-918.4015 678.8428,-930.4015 678.8428,-930.4015 678.8428,-936.4015 672.8428,-942.4015 666.8428,-942.4015"/>
<text text-anchor="middle" x="651.8428" y="-920.7015" font-family="Helvetica,sans-Serif" font-size="14.00" fill="#000000">far</text>
</g>
<!-- telephone&#45;&#45;far -->
<g id="edge86" class="edge">
<title>telephone:tele&#45;&#45;far</title>
<path fill="none" stroke="#000000" d="M672.3473,-897.897C672.3473,-897.897 669.4638,-901.6242 665.8595,-906.2832"/>
</g>
<!-- teleport -->
<g id="node49" class="node">
<title>teleport</title>
<polygon fill="none" stroke="#000000" points="571.8384,-950.9059 571.8384,-986.9059 642.8384,-986.9059 642.8384,-950.9059 571.8384,-950.9059"/>
<text text-anchor="middle" x="589.3384" y="-966.4059" font-family="Helvetica,sans-Serif" font-size="10.00" fill="#000000">tele</text>
<polyline fill="none" stroke="#000000" points="606.8384,-950.9059 606.8384,-986.9059 "/>
<text text-anchor="middle" x="624.8384" y="-966.4059" font-family="Helvetica,sans-Serif" font-size="10.00" fill="#000000">port</text>
</g>
<!-- teleport&#45;&#45;far -->
<g id="edge87" class="edge">
<title>teleport:tele&#45;&#45;far</title>
<path fill="none" stroke="#000000" d="M589.3384,-950.9059C589.3384,-950.9059 614.904,-948.3423 621.6428,-945.6015 623.7757,-944.7339 625.9059,-943.6932 627.9921,-942.545"/>
</g>
<!-- carry -->
<g id="node97" class="node">
<title>carry</title>
<path fill="none" stroke="#000000" d="M577.8339,-1031.4104C577.8339,-1031.4104 547.8339,-1031.4104 547.8339,-1031.4104 541.8339,-1031.4104 535.8339,-1025.4104 535.8339,-1019.4104 535.8339,-1019.4104 535.8339,-1007.4104 535.8339,-1007.4104 535.8339,-1001.4104 541.8339,-995.4104 547.8339,-995.4104 547.8339,-995.4104 577.8339,-995.4104 577.8339,-995.4104 583.8339,-995.4104 589.8339,-1001.4104 589.8339,-1007.4104 589.8339,-1007.4104 589.8339,-1019.4104 589.8339,-1019.4104 589.8339,-1025.4104 583.8339,-1031.4104 577.8339,-1031.4104"/>
<text text-anchor="middle" x="562.8339" y="-1009.7104" font-family="Helvetica,sans-Serif" font-size="14.00" fill="#000000">carry</text>
</g>
<!-- teleport&#45;&#45;carry -->
<g id="edge88" class="edge">
<title>teleport:port&#45;&#45;carry</title>
<path fill="none" stroke="#000000" d="M625.3384,-986.9059C625.3384,-986.9059 599.7728,-989.4695 593.0339,-992.2104 590.901,-993.0779 588.7708,-994.1186 586.6847,-995.2668"/>
</g>
<!-- import -->
<g id="node50" class="node">
<title>import</title>
<polygon fill="none" stroke="#000000" points="485.8295,-1039.9148 485.8295,-1075.9148 550.8295,-1075.9148 550.8295,-1039.9148 485.8295,-1039.9148"/>
<text text-anchor="middle" x="500.3295" y="-1055.4148" font-family="Helvetica,sans-Serif" font-size="10.00" fill="#000000">im</text>
<polyline fill="none" stroke="#000000" points="514.8295,-1039.9148 514.8295,-1075.9148 "/>
<text text-anchor="middle" x="532.8295" y="-1055.4148" font-family="Helvetica,sans-Serif" font-size="10.00" fill="#000000">port</text>
</g>
<!-- import&#45;&#45;carry -->
<g id="edge89" class="edge">
<title>import:port&#45;&#45;carry</title>
<path fill="none" stroke="#000000" d="M533.3295,-1039.9148C533.3295,-1039.9148 537.4785,-1036.1876 542.6649,-1031.5286"/>
</g>
<!-- pathetic -->
<g id="node51" class="node">
<title>pathetic</title>
<polygon fill="none" stroke="#000000" points="837.8651,-594.8703 837.8651,-630.8703 910.8651,-630.8703 910.8651,-594.8703 837.8651,-594.8703"/>
<text text-anchor="middle" x="856.8651" y="-610.3703" font-family="Helvetica,sans-Serif" font-size="10.00" fill="#000000">path</text>
<polyline fill="none" stroke="#000000" points="875.8651,-594.8703 875.8651,-630.8703 "/>
<text text-anchor="middle" x="893.3651" y="-610.3703" font-family="Helvetica,sans-Serif" font-size="10.00" fill="#000000">etic</text>
</g>
<!-- pathetic&#45;&#45;suffering -->
<g id="edge90" class="edge">
<title>pathetic:path&#45;&#45;suffering</title>
<path fill="none" stroke="#000000" d="M856.3651,-630.8703C856.3651,-630.8703 867.3461,-633.0299 875.6695,-636.1748 878.1681,-637.1188 880.717,-638.1565 883.2647,-639.2498"/>
</g>
<!-- pathologic -->
<g id="node52" class="node">
<title>pathologic</title>
<polygon fill="none" stroke="#000000" points="921.374,-594.8703 921.374,-630.8703 1005.374,-630.8703 1005.374,-594.8703 921.374,-594.8703"/>
<text text-anchor="middle" x="943.374" y="-610.3703" font-family="Helvetica,sans-Serif" font-size="10.00" fill="#000000">patho</text>
<polyline fill="none" stroke="#000000" points="965.374,-594.8703 965.374,-630.8703 "/>
<text text-anchor="middle" x="985.374" y="-610.3703" font-family="Helvetica,sans-Serif" font-size="10.00" fill="#000000">logic</text>
</g>
<!-- pathologic&#45;&#45;suffering -->
<g id="edge91" class="edge">
<title>pathologic:patho&#45;&#45;suffering</title>
<path fill="none" stroke="#000000" d="M943.374,-630.8703C943.374,-630.8703 939.928,-634.5975 935.6206,-639.2565"/>
</g>
<!-- explain -->
<g id="node53" class="node">
<title>explain</title>
<polygon fill="none" stroke="#000000" points="331.8535,-828.1374 331.8535,-864.1374 401.8535,-864.1374 401.8535,-828.1374 331.8535,-828.1374"/>
<text text-anchor="middle" x="346.3535" y="-843.6374" font-family="Helvetica,sans-Serif" font-size="10.00" fill="#000000">ex</text>
<polyline fill="none" stroke="#000000" points="360.8535,-828.1374 360.8535,-864.1374 "/>
<text text-anchor="middle" x="381.3535" y="-843.6374" font-family="Helvetica,sans-Serif" font-size="10.00" fill="#000000">plain</text>
</g>
<!-- explain&#45;&#45;fold -->
<g id="edge93" class="edge">
<title>explain:plain&#45;&#45;fold</title>
<path fill="none" stroke="#000000" d="M381.8535,-828.1374C381.8535,-828.1374 369.0581,-814.4922 357.7622,-802.446"/>
</g>
<!-- un -->
<g id="node98" class="node">
<title>un</title>
<path fill="none" stroke="#000000" d="M377.5147,-910.1788C377.5147,-910.1788 347.5147,-910.1788 347.5147,-910.1788 341.5147,-910.1788 335.5147,-904.1788 335.5147,-898.1788 335.5147,-898.1788 335.5147,-886.1788 335.5147,-886.1788 335.5147,-880.1788 341.5147,-874.1788 347.5147,-874.1788 347.5147,-874.1788 377.5147,-874.1788 377.5147,-874.1788 383.5147,-874.1788 389.5147,-880.1788 389.5147,-886.1788 389.5147,-886.1788 389.5147,-898.1788 389.5147,-898.1788 389.5147,-904.1788 383.5147,-910.1788 377.5147,-910.1788"/>
<text text-anchor="middle" x="362.5147" y="-888.4788" font-family="Helvetica,sans-Serif" font-size="14.00" fill="#000000">un</text>
</g>
<!-- explain&#45;&#45;un -->
<g id="edge92" class="edge">
<title>explain:ex&#45;&#45;un</title>
<path fill="none" stroke="#000000" d="M345.8535,-864.1374C345.8535,-864.1374 348.4985,-868.5891 351.6808,-873.9449"/>
</g>
<!-- duplicate -->
<g id="node54" class="node">
<title>duplicate</title>
<polygon fill="none" stroke="#000000" points="222.1831,-811.1217 222.1831,-847.1217 307.1831,-847.1217 307.1831,-811.1217 222.1831,-811.1217"/>
<text text-anchor="middle" x="239.6831" y="-826.6217" font-family="Helvetica,sans-Serif" font-size="10.00" fill="#000000">dup</text>
<polyline fill="none" stroke="#000000" points="257.1831,-811.1217 257.1831,-847.1217 "/>
<text text-anchor="middle" x="282.1831" y="-826.6217" font-family="Helvetica,sans-Serif" font-size="10.00" fill="#000000">plicate</text>
</g>
<!-- duplicate&#45;&#45;fold -->
<g id="edge95" class="edge">
<title>duplicate:plicate&#45;&#45;fold</title>
<path fill="none" stroke="#000000" d="M307.6831,-829.1217C307.6831,-829.1217 318.1761,-814.9736 327.3576,-802.5939"/>
</g>
<!-- two -->
<g id="node99" class="node">
<title>two</title>
<path fill="none" stroke="#000000" d="M261.1272,-891.6757C261.1272,-891.6757 231.1272,-891.6757 231.1272,-891.6757 225.1272,-891.6757 219.1272,-885.6757 219.1272,-879.6757 219.1272,-879.6757 219.1272,-867.6757 219.1272,-867.6757 219.1272,-861.6757 225.1272,-855.6757 231.1272,-855.6757 231.1272,-855.6757 261.1272,-855.6757 261.1272,-855.6757 267.1272,-855.6757 273.1272,-861.6757 273.1272,-867.6757 273.1272,-867.6757 273.1272,-879.6757 273.1272,-879.6757 273.1272,-885.6757 267.1272,-891.6757 261.1272,-891.6757"/>
<text text-anchor="middle" x="246.1272" y="-869.9757" font-family="Helvetica,sans-Serif" font-size="14.00" fill="#000000">two</text>
</g>
<!-- duplicate&#45;&#45;two -->
<g id="edge94" class="edge">
<title>duplicate:dup&#45;&#45;two</title>
<path fill="none" stroke="#000000" d="M239.6831,-847.1217C239.6831,-847.1217 240.5893,-850.8559 241.7221,-855.5236"/>
</g>
<!-- window -->
<g id="node55" class="node">
<title>window</title>
<polygon fill="none" stroke="#000000" points="756.3695,-423.3748 756.3695,-459.3748 827.3695,-459.3748 827.3695,-423.3748 756.3695,-423.3748"/>
<text text-anchor="middle" x="776.3695" y="-438.8748" font-family="Helvetica,sans-Serif" font-size="10.00" fill="#000000">wind</text>
<polyline fill="none" stroke="#000000" points="796.3695,-423.3748 796.3695,-459.3748 "/>
<text text-anchor="middle" x="811.8695" y="-438.8748" font-family="Helvetica,sans-Serif" font-size="10.00" fill="#000000">ow</text>
</g>
<!-- wind -->
<g id="node100" class="node">
<title>wind</title>
<path fill="none" stroke="#000000" d="M806.8695,-503.8792C806.8695,-503.8792 776.8695,-503.8792 776.8695,-503.8792 770.8695,-503.8792 764.8695,-497.8792 764.8695,-491.8792 764.8695,-491.8792 764.8695,-479.8792 764.8695,-479.8792 764.8695,-473.8792 770.8695,-467.8792 776.8695,-467.8792 776.8695,-467.8792 806.8695,-467.8792 806.8695,-467.8792 812.8695,-467.8792 818.8695,-473.8792 818.8695,-479.8792 818.8695,-479.8792 818.8695,-491.8792 818.8695,-491.8792 818.8695,-497.8792 812.8695,-503.8792 806.8695,-503.8792"/>
<text text-anchor="middle" x="791.8695" y="-482.1792" font-family="Helvetica,sans-Serif" font-size="14.00" fill="#000000">wind</text>
</g>
<!-- window&#45;&#45;wind -->
<g id="edge96" class="edge">
<title>window:wind&#45;&#45;wind</title>
<path fill="none" stroke="#000000" d="M775.8695,-459.3748C775.8695,-459.3748 778.1195,-463.1019 780.932,-467.7609"/>
</g>
<!-- eye -->
<g id="node101" class="node">
<title>eye</title>
<path fill="none" stroke="#000000" d="M806.8695,-414.8703C806.8695,-414.8703 776.8695,-414.8703 776.8695,-414.8703 770.8695,-414.8703 764.8695,-408.8703 764.8695,-402.8703 764.8695,-402.8703 764.8695,-390.8703 764.8695,-390.8703 764.8695,-384.8703 770.8695,-378.8703 776.8695,-378.8703 776.8695,-378.8703 806.8695,-378.8703 806.8695,-378.8703 812.8695,-378.8703 818.8695,-384.8703 818.8695,-390.8703 818.8695,-390.8703 818.8695,-402.8703 818.8695,-402.8703 818.8695,-408.8703 812.8695,-414.8703 806.8695,-414.8703"/>
<text text-anchor="middle" x="791.8695" y="-393.1703" font-family="Helvetica,sans-Serif" font-size="14.00" fill="#000000">eye</text>
</g>
<!-- window&#45;&#45;eye -->
<g id="edge97" class="edge">
<title>window:ow&#45;&#45;eye</title>
<path fill="none" stroke="#000000" d="M811.8695,-423.3748C811.8695,-423.3748 809.057,-419.6476 805.5414,-414.9886"/>
</g>
<!-- death -->
<g id="node67" class="node">
<title>death</title>
<path fill="none" stroke="#000000" d="M57.8695,-144.8703C57.8695,-144.8703 23.8695,-144.8703 23.8695,-144.8703 17.8695,-144.8703 11.8695,-138.8703 11.8695,-132.8703 11.8695,-132.8703 11.8695,-120.8703 11.8695,-120.8703 11.8695,-114.8703 17.8695,-108.8703 23.8695,-108.8703 23.8695,-108.8703 57.8695,-108.8703 57.8695,-108.8703 63.8695,-108.8703 69.8695,-114.8703 69.8695,-120.8703 69.8695,-120.8703 69.8695,-132.8703 69.8695,-132.8703 69.8695,-138.8703 63.8695,-144.8703 57.8695,-144.8703"/>
<text text-anchor="middle" x="40.8695" y="-123.1703" font-family="Helvetica,sans-Serif" font-size="14.00" fill="#000000">death</text>
</g>
<!-- death&#45;&#45;mortgage -->
<g id="edge5" class="edge">
<title>death&#45;&#45;mortgage:mort</title>
<path fill="none" stroke="#000000" d="M26.5141,-144.9886C22.8227,-149.6476 19.8695,-153.3748 19.8695,-153.3748"/>
</g>
<!-- breathing&#45;&#45;expire -->
<g id="edge12" class="edge">
<title>breathing&#45;&#45;expire:pire</title>
<path fill="none" stroke="#000000" d="M603.9453,-654.603C612.6038,-635.3971 625.0564,-607.775 625.0564,-607.775"/>
</g>
<!-- out -->
<g id="node70" class="node">
<title>out</title>
<path fill="none" stroke="#000000" d="M692.6607,-618.4396C692.6607,-618.4396 662.6607,-618.4396 662.6607,-618.4396 656.6607,-618.4396 650.6607,-612.4396 650.6607,-606.4396 650.6607,-606.4396 650.6607,-594.4396 650.6607,-594.4396 650.6607,-588.4396 656.6607,-582.4396 662.6607,-582.4396 662.6607,-582.4396 692.6607,-582.4396 692.6607,-582.4396 698.6607,-582.4396 704.6607,-588.4396 704.6607,-594.4396 704.6607,-594.4396 704.6607,-606.4396 704.6607,-606.4396 704.6607,-612.4396 698.6607,-618.4396 692.6607,-618.4396"/>
<text text-anchor="middle" x="677.6607" y="-596.7396" font-family="Helvetica,sans-Serif" font-size="14.00" fill="#000000">out</text>
</g>
<!-- out&#45;&#45;expire -->
<g id="edge11" class="edge">
<title>out&#45;&#45;expire:ex</title>
<path fill="none" stroke="#000000" d="M650.603,-610.0483C648.8095,-610.4327 647.0168,-610.7498 645.2564,-610.975 621.8046,-613.9753 592.1549,-607.7925 592.1549,-607.7925"/>
</g>
<!-- out&#45;&#45;expose -->
<g id="edge13" class="edge">
<title>out&#45;&#45;expose:ex</title>
<path fill="none" stroke="#000000" d="M704.799,-608.544C712.0981,-610.7237 718.0112,-612.4896 718.0112,-612.4896"/>
</g>
<!-- warn -->
<g id="node73" class="node">
<title>warn</title>
<path fill="none" stroke="#000000" d="M714.8695,-206.3748C714.8695,-206.3748 684.8695,-206.3748 684.8695,-206.3748 678.8695,-206.3748 672.8695,-200.3748 672.8695,-194.3748 672.8695,-194.3748 672.8695,-182.3748 672.8695,-182.3748 672.8695,-176.3748 678.8695,-170.3748 684.8695,-170.3748 684.8695,-170.3748 714.8695,-170.3748 714.8695,-170.3748 720.8695,-170.3748 726.8695,-176.3748 726.8695,-182.3748 726.8695,-182.3748 726.8695,-194.3748 726.8695,-194.3748 726.8695,-200.3748 720.8695,-206.3748 714.8695,-206.3748"/>
<text text-anchor="middle" x="699.8695" y="-184.6748" font-family="Helvetica,sans-Serif" font-size="14.00" fill="#000000">warn</text>
</g>
<!-- warn&#45;&#45;monster -->
<g id="edge17" class="edge">
<title>warn&#45;&#45;monster:mon</title>
<path fill="none" stroke="#000000" d="M707.0866,-206.3869C711.8145,-218.1867 717.1231,-231.4356 717.1231,-231.4356"/>
</g>
<!-- warn&#45;&#45;monitor -->
<g id="edge18" class="edge">
<title>warn&#45;&#45;monitor:mon</title>
<path fill="none" stroke="#000000" d="M676.8631,-170.1996C674.525,-168.986 672.1099,-167.9428 669.6695,-167.1748 645.3788,-159.5297 612.4608,-170.3563 612.4608,-170.3563"/>
</g>
<!-- warn&#45;&#45;money -->
<g id="edge19" class="edge">
<title>warn&#45;&#45;money:mon</title>
<path fill="none" stroke="#000000" d="M708.3415,-170.3626C713.8915,-158.5628 720.1231,-145.3139 720.1231,-145.3139"/>
</g>
</g>
</svg>
